<?xml version="1.0" encoding="UTF-8" standalone="no"?>
<!-- Created with Inkscape (http://www.inkscape.org/) -->

<svg
   xmlns:dc="http://purl.org/dc/elements/1.1/"
   xmlns:cc="http://creativecommons.org/ns#"
   xmlns:rdf="http://www.w3.org/1999/02/22-rdf-syntax-ns#"
   xmlns:svg="http://www.w3.org/2000/svg"
   xmlns="http://www.w3.org/2000/svg"
   xmlns:sodipodi="http://sodipodi.sourceforge.net/DTD/sodipodi-0.dtd"
   xmlns:inkscape="http://www.inkscape.org/namespaces/inkscape"
   width="32"
   height="32"
   viewBox="0 0 32 32"
   id="svg2"
   version="1.1"
   inkscape:version="0.92.1 r15371"
   sodipodi:docname="github_logo_32.svg"
   inkscape:export-filename="/home/zipola/Projektit/tuomosipola.github.io/pics/github_logo_32.png"
   inkscape:export-xdpi="90"
   inkscape:export-ydpi="90">
  <defs
     id="defs4" />
  <sodipodi:namedview
     id="base"
     pagecolor="#ffffff"
     bordercolor="#666666"
     borderopacity="1.0"
     inkscape:pageopacity="0.0"
     inkscape:pageshadow="2"
     inkscape:zoom="1.979899"
     inkscape:cx="-137.99791"
     inkscape:cy="-23.26968"
     inkscape:document-units="px"
     inkscape:current-layer="layer1"
     showgrid="false"
     units="px"
     width="32in"
     inkscape:window-width="1366"
     inkscape:window-height="704"
     inkscape:window-x="0"
     inkscape:window-y="27"
     inkscape:window-maximized="1" />
  <metadata
     id="metadata7">
    <rdf:RDF>
      <cc:Work
         rdf:about="">
        <dc:format>image/svg+xml</dc:format>
        <dc:type
           rdf:resource="http://purl.org/dc/dcmitype/StillImage" />
        <dc:title />
      </cc:Work>
    </rdf:RDF>
  </metadata>
  <g
     inkscape:label="Taso 1"
     inkscape:groupmode="layer"
     id="layer1"
     transform="translate(0,-1020.3622)">
    <path
       style="opacity:1;fill:#333333;fill-opacity:1;fill-rule:nonzero;stroke:none;stroke-width:4.22900009;stroke-linecap:round;stroke-linejoin:round;stroke-miterlimit:4;stroke-dasharray:none;stroke-dashoffset:0;stroke-opacity:1"
       d="M 16 0 A 16 16 0 0 0 0 16 A 16 16 0 0 0 11.417969 31.316406 C 11.674958 31.306727 12.005361 31.13674 12.101562 30.957031 C 12.147042 30.872031 12.177734 30.179941 12.177734 29.244141 L 12.177734 27.673828 L 11.972656 27.722656 C 11.860473 27.749656 11.335003 27.7905 10.804688 27.8125 C 9.690709 27.8599 9.1202752 27.759972 8.3847656 27.388672 C 7.6798197 27.032872 7.2842266 26.584038 6.7988281 25.585938 C 6.3421407 24.646737 5.9101701 24.104391 5.2070312 23.587891 C 4.9814488 23.422191 4.7567272 23.232922 4.7070312 23.169922 C 4.2762529 22.619622 5.400433 22.460259 6.3066406 22.943359 C 6.8521644 23.234059 7.343926 23.695747 7.6972656 24.248047 C 8.2515416 25.114547 8.8163486 25.571581 9.6132812 25.800781 C 10.474555 26.048381 12.248153 25.756034 12.251953 25.365234 C 12.254897 25.064034 12.606706 24.208591 12.878906 23.837891 C 13.191251 23.412191 13.250431 23.464653 12.289062 23.314453 C 11.040988 23.119653 9.7999179 22.677147 8.9511719 22.123047 C 7.169127 20.959747 6.2895893 19.190541 6.1230469 16.431641 C 6.0188849 14.706041 6.4591135 13.193559 7.4121094 12.005859 L 7.7011719 11.646484 L 7.5664062 11.160156 C 7.380969 10.491456 7.3855198 9.3069188 7.5761719 8.5117188 C 7.8016941 7.5708188 7.8388653 7.515625 8.2441406 7.515625 C 9.0000357 7.515625 10.194855 7.9510562 11.386719 8.6601562 L 12.175781 9.1289062 L 12.75 8.9960938 C 13.919529 8.7261937 14.511679 8.6679688 16.070312 8.6679688 C 17.628945 8.6679688 18.221097 8.7265937 19.390625 8.9960938 L 19.966797 9.1289062 L 20.755859 8.6601562 C 21.947724 7.9510562 23.144496 7.515625 23.900391 7.515625 C 24.305667 7.515625 24.342837 7.5711188 24.568359 8.5117188 C 24.759083 9.3068188 24.761611 10.491456 24.576172 11.160156 L 24.441406 11.646484 L 24.730469 12.005859 C 25.916213 13.483859 26.287736 15.415081 25.859375 17.863281 C 25.588339 19.412281 24.850887 20.794297 23.835938 21.654297 C 22.924108 22.427097 21.474104 23.035597 19.964844 23.279297 C 19.536512 23.348797 19.143737 23.416641 19.091797 23.431641 C 19.028879 23.449841 19.09662 23.601519 19.291016 23.886719 C 19.451476 24.122219 19.659456 24.531775 19.753906 24.796875 C 19.918861 25.259975 19.927474 25.391634 19.964844 28.115234 C 20.002665 30.871434 20.006541 30.953969 20.158203 31.105469 C 20.288531 31.235712 20.457341 31.299484 20.691406 31.294922 A 16 16 0 0 0 32 16 A 16 16 0 0 0 16 0 z M 6.1035156 23.105469 L 6.1035156 23.109375 C 6.0694526 23.112375 6.038915 23.123484 6.015625 23.146484 C 5.969103 23.192984 5.9530617 23.265547 5.9804688 23.310547 C 6.0488402 23.417847 6.412057 23.411981 6.375 23.300781 C 6.3357148 23.182181 6.2057027 23.095469 6.1035156 23.105469 z M 6.78125 23.646484 C 6.6648441 23.618184 6.5938186 23.722291 6.6503906 23.900391 C 6.6827782 24.002391 6.7607373 24.054688 6.8789062 24.054688 C 7.0991637 24.054688 7.1117955 23.904903 6.9082031 23.720703 C 6.8627949 23.678703 6.820052 23.656484 6.78125 23.646484 z M 7.3808594 24.435547 C 7.3425886 24.435547 7.3037204 24.450422 7.2714844 24.482422 C 7.2035374 24.550422 7.2043523 24.616766 7.2695312 24.759766 C 7.3211767 24.873266 7.4141655 24.945312 7.5078125 24.945312 C 7.6318097 24.945312 7.659412 24.905247 7.640625 24.748047 C 7.6187844 24.565447 7.495671 24.435547 7.3808594 24.435547 z M 8.1191406 25.316406 C 7.9905829 25.316406 7.9492188 25.357728 7.9492188 25.486328 C 7.9492188 25.580128 7.9901135 25.698047 8.0390625 25.748047 C 8.0880152 25.797047 8.2050031 25.835938 8.2988281 25.835938 C 8.4273871 25.835938 8.46875 25.792663 8.46875 25.664062 C 8.46875 25.446762 8.3365074 25.316406 8.1191406 25.316406 z M 9.2402344 25.984375 C 9.0262928 25.984375 8.9318297 26.162812 9.0625 26.320312 C 9.1804843 26.461213 9.5530119 26.462113 9.6074219 26.320312 C 9.6648858 26.170513 9.4614803 25.984375 9.2402344 25.984375 z M 11.808594 26.095703 C 11.518518 26.095703 11.324798 26.313641 11.509766 26.431641 C 11.675345 26.536541 11.855488 26.519566 11.990234 26.384766 C 12.163296 26.211766 12.090715 26.095703 11.808594 26.095703 z M 10.535156 26.203125 C 10.267315 26.203125 10.167039 26.403375 10.363281 26.546875 C 10.537175 26.676575 10.629836 26.676175 10.806641 26.546875 C 10.926591 26.459075 10.933719 26.427372 10.849609 26.326172 C 10.795162 26.259772 10.653822 26.207031 10.535156 26.207031 L 10.535156 26.203125 z "
       transform="translate(0,1020.3622)"
       id="path4273" />
  </g>
</svg>
