<?xml version="1.0" encoding="UTF-8" standalone="no"?>
<!-- Created with Inkscape (http://www.inkscape.org/) -->

<svg
   xmlns:dc="http://purl.org/dc/elements/1.1/"
   xmlns:cc="http://creativecommons.org/ns#"
   xmlns:rdf="http://www.w3.org/1999/02/22-rdf-syntax-ns#"
   xmlns:svg="http://www.w3.org/2000/svg"
   xmlns="http://www.w3.org/2000/svg"
   xmlns:sodipodi="http://sodipodi.sourceforge.net/DTD/sodipodi-0.dtd"
   xmlns:inkscape="http://www.inkscape.org/namespaces/inkscape"
   width="32"
   height="32"
   viewBox="0 0 32 32"
   id="svg2"
   version="1.1"
   inkscape:version="0.91 r13725"
   sodipodi:docname="google_plus_logo_32.svg"
   inkscape:export-filename="/home/zipola/Projektit/tuomosipola.github.io/pics/google_plus_logo_32.png"
   inkscape:export-xdpi="90"
   inkscape:export-ydpi="90">
  <defs
     id="defs4" />
  <sodipodi:namedview
     id="base"
     pagecolor="#ffffff"
     bordercolor="#666666"
     borderopacity="1.0"
     inkscape:pageopacity="0.0"
     inkscape:pageshadow="2"
     inkscape:zoom="5.6"
     inkscape:cx="50.017874"
     inkscape:cy="22.492551"
     inkscape:document-units="px"
     inkscape:current-layer="layer1"
     showgrid="false"
     units="px"
     width="32in"
     inkscape:window-width="1366"
     inkscape:window-height="704"
     inkscape:window-x="0"
     inkscape:window-y="27"
     inkscape:window-maximized="1" />
  <metadata
     id="metadata7">
    <rdf:RDF>
      <cc:Work
         rdf:about="">
        <dc:format>image/svg+xml</dc:format>
        <dc:type
           rdf:resource="http://purl.org/dc/dcmitype/StillImage" />
        <dc:title />
      </cc:Work>
    </rdf:RDF>
  </metadata>
  <g
     inkscape:label="Taso 1"
     inkscape:groupmode="layer"
     id="layer1"
     transform="translate(0,-1020.3622)">
    <path
       style="opacity:1;fill:#333333;fill-opacity:1;fill-rule:nonzero;stroke:none;stroke-width:4.22900009;stroke-linecap:round;stroke-linejoin:round;stroke-miterlimit:4;stroke-dasharray:none;stroke-dashoffset:0;stroke-opacity:1"
       d="M 16 0 A 16 16 0 0 0 0 16 A 16 16 0 0 0 16 32 A 16 16 0 0 0 32 16 A 16 16 0 0 0 16 0 z M 17.380859 7.4628906 L 19.861328 7.4726562 L 19.226562 7.8710938 C 18.878052 8.0898937 18.525859 8.309375 18.443359 8.359375 L 18.292969 8.4492188 L 17.609375 8.4492188 L 16.925781 8.4492188 L 17.320312 8.8417969 C 17.989392 9.5074969 18.299933 10.0576 18.470703 10.875 C 18.549513 11.2522 18.556628 11.918741 18.486328 12.306641 C 18.324398 13.200141 17.865763 13.918553 17.001953 14.626953 C 16.139843 15.333953 15.886862 15.700278 15.914062 16.205078 C 15.937653 16.642078 16.088464 16.833328 16.927734 17.486328 C 17.570034 17.986028 17.770738 18.156734 18.173828 18.552734 C 18.809868 19.177534 19.126974 19.71005 19.277344 20.40625 C 19.353174 20.75695 19.357609 21.439269 19.287109 21.792969 C 19.182929 22.315669 18.941071 22.865753 18.619141 23.314453 C 17.723391 24.562953 16.125341 25.368913 14.150391 25.570312 C 13.768091 25.609312 12.701482 25.62275 12.326172 25.59375 C 11.513252 25.53055 10.668313 25.317978 10.039062 25.017578 C 9.0535915 24.546978 8.4198144 23.861609 8.1464844 22.974609 C 8.0772644 22.749709 8.0720156 22.699681 8.0722656 22.238281 C 8.0725656 21.817081 8.0808594 21.709197 8.1308594 21.529297 C 8.3970294 20.570797 8.9998253 19.833237 9.9726562 19.273438 C 10.930726 18.722137 12.196142 18.401591 13.919922 18.275391 L 14.369141 18.244141 L 14.28125 18.134766 C 13.99083 17.772466 13.789097 17.40035 13.716797 17.09375 C 13.627807 16.71635 13.671441 16.275534 13.837891 15.865234 L 13.898438 15.716797 L 13.835938 15.734375 C 13.801317 15.743375 13.592757 15.757578 13.373047 15.767578 C 12.184047 15.819478 11.14008 15.455003 10.375 14.720703 C 9.199749 13.592703 8.9009781 11.888534 9.6113281 10.365234 C 10.305969 8.8755344 11.739313 7.9240656 13.814453 7.5722656 C 14.435103 7.4647656 14.800699 7.4548438 17.380859 7.4648438 L 17.380859 7.4628906 z M 13.533203 8.3710938 C 13.315516 8.3667937 13.095998 8.3977969 12.876953 8.4667969 C 11.935353 8.7613969 11.419237 9.4704375 11.335938 10.585938 C 11.296148 11.119137 11.351562 11.639278 11.513672 12.267578 C 11.907442 13.793678 12.760363 14.824028 13.814453 15.048828 C 14.714143 15.240628 15.775818 14.768953 16.173828 14.001953 C 16.402724 13.560953 16.489794 13.020841 16.433594 12.369141 C 16.333534 11.208241 15.923179 10.09435 15.318359 9.34375 C 14.817269 8.72185 14.186263 8.3850937 13.533203 8.3710938 z M 22.132812 12.6875 L 22.726562 12.6875 L 23.318359 12.6875 L 23.318359 13.871094 L 23.318359 15.056641 L 24.517578 15.056641 L 25.714844 15.056641 L 25.714844 15.648438 L 25.714844 16.240234 L 24.523438 16.25 L 23.332031 16.259766 L 23.324219 17.453125 L 23.318359 18.638672 L 22.744141 18.638672 C 22.428621 18.638672 22.162444 18.631094 22.152344 18.621094 C 22.141914 18.610994 22.132812 18.072928 22.132812 17.423828 L 22.132812 16.242188 L 20.962891 16.242188 L 19.791016 16.242188 L 19.791016 15.650391 L 19.791016 15.058594 L 20.962891 15.058594 L 22.132812 15.058594 L 22.132812 13.873047 L 22.132812 12.689453 L 22.132812 12.6875 z M 15.001953 18.931641 C 14.763203 18.905241 13.876599 18.962203 13.386719 19.033203 C 11.61551 19.291603 10.585132 19.952341 10.232422 21.056641 C 10.147632 21.322041 10.123147 21.903578 10.185547 22.205078 C 10.287277 22.697078 10.502016 23.08785 10.878906 23.46875 C 11.517366 24.11415 12.592183 24.531469 13.814453 24.605469 C 15.068763 24.681969 16.141331 24.435056 16.837891 23.910156 C 17.460491 23.441056 17.790041 22.726366 17.744141 21.947266 C 17.724251 21.609666 17.66828 21.390728 17.53125 21.111328 C 17.27392 20.586628 16.758755 20.088313 15.609375 19.257812 C 15.198095 18.961613 15.180113 18.951641 15.001953 18.931641 z "
       transform="translate(0,1020.3622)"
       id="path3359" />
  </g>
</svg>
