<?xml version="1.0" encoding="UTF-8" standalone="no"?>
<!-- Created with Inkscape (http://www.inkscape.org/) -->

<svg
   xmlns:dc="http://purl.org/dc/elements/1.1/"
   xmlns:cc="http://creativecommons.org/ns#"
   xmlns:rdf="http://www.w3.org/1999/02/22-rdf-syntax-ns#"
   xmlns:svg="http://www.w3.org/2000/svg"
   xmlns="http://www.w3.org/2000/svg"
   xmlns:sodipodi="http://sodipodi.sourceforge.net/DTD/sodipodi-0.dtd"
   xmlns:inkscape="http://www.inkscape.org/namespaces/inkscape"
   width="32"
   height="32"
   viewBox="0 0 8.4666665 8.4666669"
   version="1.1"
   id="svg8"
   sodipodi:docname="gs_logo_32.svg"
   inkscape:version="0.92.5 (2060ec1f9f, 2020-04-08)"
   inkscape:export-filename="/home/zipola/Projektit/tuomosipola.github.io/pics/gs_logo_32.png"
   inkscape:export-xdpi="96.000008"
   inkscape:export-ydpi="96.000008">
  <defs
     id="defs2" />
  <sodipodi:namedview
     id="base"
     pagecolor="#ffffff"
     bordercolor="#666666"
     borderopacity="1.0"
     inkscape:pageopacity="0.0"
     inkscape:pageshadow="2"
     inkscape:zoom="0.7"
     inkscape:cx="-242.78484"
     inkscape:cy="-13.922904"
     inkscape:document-units="mm"
     inkscape:current-layer="layer1"
     showgrid="false"
     units="px"
     inkscape:window-width="1920"
     inkscape:window-height="1016"
     inkscape:window-x="0"
     inkscape:window-y="27"
     inkscape:window-maximized="1" />
  <metadata
     id="metadata5">
    <rdf:RDF>
      <cc:Work
         rdf:about="">
        <dc:format>image/svg+xml</dc:format>
        <dc:type
           rdf:resource="http://purl.org/dc/dcmitype/StillImage" />
        <dc:title></dc:title>
      </cc:Work>
    </rdf:RDF>
  </metadata>
  <g
     inkscape:label="Taso 1"
     inkscape:groupmode="layer"
     id="layer1"
     transform="translate(0,-288.53332)">
    <path
       style="opacity:1;fill:#333333;fill-opacity:1;fill-rule:nonzero;stroke:none;stroke-width:3.77952766;stroke-linecap:square;stroke-linejoin:miter;stroke-miterlimit:4;stroke-dasharray:none;stroke-dashoffset:0;stroke-opacity:1;paint-order:normal"
       d="M 15.666016 0.00390625 A 16.000001 16.000001 0 0 0 9.4628906 1.3964844 A 16.000001 16.000001 0 0 0 1.3710938 22.480469 L 1.4726562 22.707031 A 16.000001 16.000001 0 0 0 22.650391 30.552734 A 16.000001 16.000001 0 0 0 30.578125 9.40625 A 16.000001 16.000001 0 0 0 15.666016 0.00390625 z M 16 6.4277344 L 25.572266 14.005859 L 21.072266 17.669922 A 5.5833487 5.5833487 0 0 1 21.582031 19.988281 A 5.5833487 5.5833487 0 0 1 16 25.572266 A 5.5833487 5.5833487 0 0 1 10.417969 19.988281 A 5.5833487 5.5833487 0 0 1 10.925781 17.667969 L 6.4277344 14.005859 L 16 6.4277344 z "
       transform="matrix(0.26458333,0,0,0.26458333,0,288.53332)"
       id="path845" />
  </g>
</svg>
