<?xml version="1.0" encoding="UTF-8" standalone="no"?>
<!-- Created with Inkscape (http://www.inkscape.org/) -->

<svg
   width="32"
   height="32"
   viewBox="0 0 8.4666665 8.4666669"
   version="1.1"
   id="svg8"
   sodipodi:docname="ig_logo_32.svg"
   inkscape:version="1.1.1 (3bf5ae0d25, 2021-09-20)"
   inkscape:export-filename="/home/zipola/Projektit/tuomosipola.github.io/pics/ig_logo_32.png"
   inkscape:export-xdpi="96.000008"
   inkscape:export-ydpi="96.000008"
   xmlns:inkscape="http://www.inkscape.org/namespaces/inkscape"
   xmlns:sodipodi="http://sodipodi.sourceforge.net/DTD/sodipodi-0.dtd"
   xmlns="http://www.w3.org/2000/svg"
   xmlns:svg="http://www.w3.org/2000/svg"
   xmlns:rdf="http://www.w3.org/1999/02/22-rdf-syntax-ns#"
   xmlns:cc="http://creativecommons.org/ns#"
   xmlns:dc="http://purl.org/dc/elements/1.1/">
  <defs
     id="defs2" />
  <sodipodi:namedview
     id="base"
     pagecolor="#ffffff"
     bordercolor="#666666"
     borderopacity="1.0"
     inkscape:pageopacity="0.0"
     inkscape:pageshadow="2"
     inkscape:zoom="11.2"
     inkscape:cx="19.732143"
     inkscape:cy="18.839286"
     inkscape:document-units="mm"
     inkscape:current-layer="layer1"
     showgrid="false"
     units="px"
     inkscape:window-width="1920"
     inkscape:window-height="1011"
     inkscape:window-x="0"
     inkscape:window-y="32"
     inkscape:window-maximized="1"
     inkscape:pagecheckerboard="0" />
  <metadata
     id="metadata5">
    <rdf:RDF>
      <cc:Work
         rdf:about="">
        <dc:format>image/svg+xml</dc:format>
        <dc:type
           rdf:resource="http://purl.org/dc/dcmitype/StillImage" />
        <dc:title />
      </cc:Work>
    </rdf:RDF>
  </metadata>
  <g
     inkscape:label="Taso 1"
     inkscape:groupmode="layer"
     id="layer1"
     transform="translate(0,-288.53332)">
    <path
       id="path845"
       style="opacity:1;fill:#333333;fill-opacity:1;fill-rule:nonzero;stroke:none;stroke-width:3.77952766;stroke-linecap:square;stroke-linejoin:miter;stroke-miterlimit:4;stroke-dasharray:none;stroke-dashoffset:0;stroke-opacity:1;paint-order:normal"
       d="M 15.666016 0.00390625 A 16.000001 16.000001 0 0 0 9.4628906 1.3964844 A 16.000001 16.000001 0 0 0 1.3710938 22.480469 L 1.4726562 22.707031 A 16.000001 16.000001 0 0 0 22.650391 30.552734 A 16.000001 16.000001 0 0 0 30.578125 9.40625 A 16.000001 16.000001 0 0 0 15.666016 0.00390625 z M 16.003906 6.2148438 C 18.22173 6.2144658 20.440558 6.25745 20.986328 6.3398438 C 23.732471 6.7537776 25.403698 8.5109519 25.722656 11.320312 C 25.783612 11.854171 25.801067 13.543748 25.779297 16.533203 C 25.744028 21.37508 25.741042 21.423494 25.253906 22.587891 C 24.610025 24.126876 23.271202 25.203887 21.466797 25.636719 C 21.023299 25.74179 20.231077 25.762352 16.322266 25.78125 C 13.725899 25.791833 11.440281 25.768074 11.107422 25.724609 C 10.374282 25.631217 9.3550937 25.287421 8.765625 24.935547 C 7.8369361 24.381166 7.0270495 23.374655 6.6308594 22.283203 C 6.2549449 21.247537 6.2110944 20.587771 6.2109375 16.019531 C 6.2108067 11.556627 6.2554076 10.82522 6.5917969 9.8554688 C 7.2824197 7.864338 8.7725168 6.6834028 11.029297 6.3398438 C 11.569996 6.2593398 13.786082 6.2149949 16.003906 6.2148438 z M 16.744141 8.0507812 C 16.310022 8.0507812 15.833632 8.0590228 15.310547 8.0625 C 11.590334 8.094626 11.352198 8.1058143 10.759766 8.2675781 C 10.020672 8.4695561 9.5997354 8.7010315 9.1425781 9.1582031 C 8.6855165 9.6152614 8.4541465 10.036153 8.2519531 10.775391 C 8.0894448 11.368965 8.0791144 11.600755 8.046875 15.394531 C 8.0111358 19.624919 8.0605396 20.653889 8.3417969 21.564453 C 8.7548626 22.901801 9.896942 23.739826 11.550781 23.914062 C 12.445333 24.006359 19.459651 24.011323 20.351562 23.917969 C 21.719808 23.775027 22.55358 23.361872 23.195312 22.507812 C 23.578987 21.997161 23.805009 21.315408 23.904297 20.365234 C 23.947334 19.952472 23.982422 17.996338 23.982422 16.019531 C 23.982422 12.212035 23.924459 11.22713 23.660156 10.429688 C 23.340301 9.4645851 22.516148 8.6551853 21.548828 8.3554688 C 20.772449 8.113579 19.782972 8.0432222 16.744141 8.0507812 z M 21.234375 9.5742188 C 21.284733 9.5704392 21.333688 9.5745989 21.378906 9.5859375 C 22.522606 9.7935469 22.815827 11.165294 21.855469 11.8125 C 21.348319 12.154472 20.580847 11.981437 20.210938 11.439453 C 19.969576 11.085878 19.973162 10.529606 20.214844 10.166016 C 20.428797 9.8442266 20.881832 9.59129 21.234375 9.5761719 L 21.234375 9.5742188 z M 15.996094 10.960938 C 16.772755 10.959463 17.549636 11.137731 18.275391 11.494141 C 19.091507 11.89496 20.041546 12.823486 20.443359 13.611328 C 20.939992 14.585086 21.023438 14.922788 21.023438 16.019531 C 21.023438 16.777327 20.988541 17.108052 20.875 17.441406 C 20.308527 19.104928 19.164791 20.270321 17.529297 20.849609 C 17.07801 21.00835 15.610159 21.118808 15.136719 21.027344 C 14.259343 20.857794 13.213153 20.325313 12.560547 19.714844 C 11.547376 18.767089 11.037906 17.655381 10.972656 16.255859 C 10.925919 15.253718 11.060334 14.596132 11.484375 13.730469 C 11.886941 12.908686 12.88495 11.912939 13.716797 11.501953 C 14.443745 11.142785 15.219434 10.962449 15.996094 10.960938 z M 15.990234 12.798828 C 15.828969 12.799206 15.66968 12.813514 15.511719 12.84375 C 14.097229 13.106805 13.093036 14.118389 12.828125 15.542969 C 12.539853 17.093066 13.661915 18.761414 15.253906 19.148438 C 17.928281 19.798781 20.132891 16.938955 18.833984 14.501953 C 18.28455 13.471125 17.119093 12.795351 15.990234 12.798828 z "
       transform="matrix(0.26458333,0,0,0.26458333,0,288.53332)" />
  </g>
</svg>
