<?xml version="1.0" encoding="UTF-8" standalone="no"?>
<svg
   xmlns:dc="http://purl.org/dc/elements/1.1/"
   xmlns:cc="http://creativecommons.org/ns#"
   xmlns:rdf="http://www.w3.org/1999/02/22-rdf-syntax-ns#"
   xmlns:svg="http://www.w3.org/2000/svg"
   xmlns="http://www.w3.org/2000/svg"
   xmlns:sodipodi="http://sodipodi.sourceforge.net/DTD/sodipodi-0.dtd"
   xmlns:inkscape="http://www.inkscape.org/namespaces/inkscape"
   width="32"
   height="32"
   viewBox="0 0 32 32"
   id="svg2"
   version="1.1"
   inkscape:version="1.0.1 (3bc2e813f5, 2020-09-07)"
   sodipodi:docname="lnkdn_logo_32.svg"
   inkscape:export-filename="/home/zipola/Projektit/tuomosipola.github.io/pics/lnkdn_logo_32.png"
   inkscape:export-xdpi="96"
   inkscape:export-ydpi="96">
  <defs
     id="defs4" />
  <sodipodi:namedview
     id="base"
     pagecolor="#ffffff"
     bordercolor="#666666"
     borderopacity="1.0"
     inkscape:pageopacity="0.0"
     inkscape:pageshadow="2"
     inkscape:zoom="5.6"
     inkscape:cx="8.2353595"
     inkscape:cy="10.672807"
     inkscape:document-units="px"
     inkscape:current-layer="layer1"
     showgrid="false"
     units="px"
     width="32in"
     inkscape:window-width="1920"
     inkscape:window-height="1016"
     inkscape:window-x="0"
     inkscape:window-y="27"
     inkscape:window-maximized="1"
     fit-margin-top="0"
     fit-margin-left="0"
     fit-margin-right="0"
     fit-margin-bottom="0"
     inkscape:document-rotation="0" />
  <metadata
     id="metadata7">
    <rdf:RDF>
      <cc:Work
         rdf:about="">
        <dc:format>image/svg+xml</dc:format>
        <dc:type
           rdf:resource="http://purl.org/dc/dcmitype/StillImage" />
        <dc:title />
      </cc:Work>
    </rdf:RDF>
  </metadata>
  <g
     inkscape:label="Taso 1"
     inkscape:groupmode="layer"
     id="layer1"
     transform="translate(0,-1020.0946)">
    <path
       style="opacity:1;fill:#333333;fill-opacity:1;fill-rule:nonzero;stroke:none;stroke-width:4.22900009;stroke-linecap:round;stroke-linejoin:round;stroke-miterlimit:4;stroke-dasharray:none;stroke-dashoffset:0;stroke-opacity:1"
       d="M 16,-0.26757812 A 16,16 0 0 0 0,15.732422 a 16,16 0 0 0 16,16 16,16 0 0 0 16,-16 A 16,16 0 0 0 16,-0.26757812 Z M 9.4863281,6.6777344 c 0.6284759,-0.039 1.1202149,0.1366343 1.5546879,0.5527344 0.602175,0.5768 0.792115,1.4211937 0.490234,2.1835937 -0.123268,0.3113 -0.257354,0.5084343 -0.503906,0.7402345 -0.25131,0.2363 -0.560173,0.406281 -0.888672,0.488281 -0.4839238,0.122 -1.0115393,0.05897 -1.4550782,-0.173828 C 8.4187904,10.32955 8.0465887,9.9727562 7.9042969,9.7226562 7.4407301,8.9082564 7.5589026,7.9254438 8.2011719,7.2773438 8.5768147,6.8982437 8.9819415,6.7097344 9.4863281,6.6777344 Z M 20.279297,11.943359 c 0.323686,0 0.649045,0.01206 0.810547,0.03906 1.307007,0.2131 2.120145,0.741256 2.644531,1.722656 0.277454,0.5193 0.471404,1.212297 0.552734,1.966797 0.07746,0.7187 0.08699,1.239559 0.08789,4.380859 l 0.002,3.308594 -1.757812,0 -1.757813,0 0,-3.095703 c -2.87e-4,-3.3483 -0.0089,-3.559244 -0.164062,-4.089844 -0.14731,-0.504 -0.392597,-0.813559 -0.794922,-1.005859 -0.764725,-0.3658 -1.893255,-0.150228 -2.355469,0.451172 -0.233905,0.3043 -0.327785,0.530772 -0.453125,1.076172 -0.06597,0.2868 -0.0677,0.329562 -0.07813,3.476562 l -0.0098,3.1875 -1.742187,0 -1.740234,0 0,-5.580078 0,-5.580078 1.666015,0 1.666016,0 0,0.763672 c 0,0.4204 0.01085,0.761718 0.02344,0.761718 0.01261,0 0.08449,-0.09905 0.160156,-0.21875 0.17328,-0.274599 0.58776,-0.694037 0.886719,-0.898437 0.444831,-0.3038 1.00142,-0.527953 1.558594,-0.626953 0.148943,-0.025 0.471236,-0.03906 0.794922,-0.03906 z m -12.3828126,0.259766 1.7441406,0 1.742187,0 0,5.578125 0,5.582031 -1.742187,0 -1.7441406,0 0,-5.582031 0,-5.578125 z"
       transform="translate(0,1020.3622)"
       id="path3340"
       inkscape:connector-curvature="0" />
  </g>
</svg>
