<?xml version="1.0" encoding="UTF-8" standalone="no"?>
<svg
   width="32"
   height="32"
   viewBox="0 0 32 32"
   id="svg2"
   version="1.1"
   inkscape:version="1.2.2 (b0a8486541, 2022-12-01)"
   sodipodi:docname="mstdn_logo_32.svg"
   inkscape:export-filename="mstdn_logo_32.png"
   inkscape:export-xdpi="96"
   inkscape:export-ydpi="96"
   xml:space="preserve"
   xmlns:inkscape="http://www.inkscape.org/namespaces/inkscape"
   xmlns:sodipodi="http://sodipodi.sourceforge.net/DTD/sodipodi-0.dtd"
   xmlns="http://www.w3.org/2000/svg"
   xmlns:svg="http://www.w3.org/2000/svg"
   xmlns:rdf="http://www.w3.org/1999/02/22-rdf-syntax-ns#"
   xmlns:cc="http://creativecommons.org/ns#"
   xmlns:dc="http://purl.org/dc/elements/1.1/"><defs
     id="defs4" /><sodipodi:namedview
     id="base"
     pagecolor="#ffffff"
     bordercolor="#666666"
     borderopacity="1.0"
     inkscape:pageopacity="0.0"
     inkscape:pageshadow="2"
     inkscape:zoom="11.2"
     inkscape:cx="-1.1607143"
     inkscape:cy="18.482143"
     inkscape:document-units="px"
     inkscape:current-layer="layer1"
     showgrid="false"
     units="px"
     width="32in"
     inkscape:window-width="1920"
     inkscape:window-height="1011"
     inkscape:window-x="0"
     inkscape:window-y="32"
     inkscape:window-maximized="1"
     fit-margin-top="0"
     fit-margin-left="0"
     fit-margin-right="0"
     fit-margin-bottom="0"
     inkscape:document-rotation="0"
     inkscape:showpageshadow="2"
     inkscape:pagecheckerboard="0"
     inkscape:deskcolor="#d1d1d1" /><metadata
     id="metadata7"><rdf:RDF><cc:Work
         rdf:about=""><dc:format>image/svg+xml</dc:format><dc:type
           rdf:resource="http://purl.org/dc/dcmitype/StillImage" /><dc:title /></cc:Work></rdf:RDF></metadata><g
     inkscape:label="Taso 1"
     inkscape:groupmode="layer"
     id="layer1"
     transform="translate(0,-1020.0946)"><path
       id="path833"
       style="fill:#333333;fill-opacity:1;stroke-width:1"
       d="M 16 1020.0946 C 7.1625176 1020.0946 0 1027.2571 0 1036.0946 C 0 1044.9321 7.1625176 1052.0946 16 1052.0946 C 24.837482 1052.0946 32 1044.9321 32 1036.0946 C 32 1027.2571 24.837482 1020.0946 16 1020.0946 z M 15.96875 1025.2118 L 16.037109 1025.2118 C 18.819905 1025.2348 21.496778 1025.5345 23.056641 1026.2508 C 23.056641 1026.2508 26.150391 1027.6363 26.150391 1032.3583 C 26.150391 1032.3583 26.189022 1035.8418 25.71875 1038.2606 C 25.420288 1039.7961 23.045684 1041.4759 20.318359 1041.8016 C 18.896179 1041.9713 17.497039 1042.1279 16.003906 1042.0594 C 13.562029 1041.9476 11.634766 1041.4755 11.634766 1041.4755 C 11.634766 1041.7132 11.650368 1041.9395 11.679688 1042.1512 C 11.997147 1044.5611 14.068435 1044.707 16.03125 1044.7743 C 18.012359 1044.8423 19.777344 1044.2841 19.777344 1044.2841 L 19.857422 1046.0751 C 19.857422 1046.0751 18.472407 1046.819 16.003906 1046.9559 C 14.642708 1047.0309 12.952935 1046.9225 10.984375 1046.4012 C 6.7148981 1045.2712 5.979536 1040.7202 5.8671875 1036.1024 C 5.8329435 1034.7314 5.8554688 1033.4395 5.8554688 1032.3583 C 5.8554688 1027.6363 8.9492188 1026.2508 8.9492188 1026.2508 C 10.509197 1025.5345 13.185956 1025.2346 15.96875 1025.2118 z M 12.818359 1028.9012 C 11.816487 1028.9012 11.008854 1029.2533 10.392578 1029.9403 C 9.7949499 1030.6273 9.4980469 1031.555 9.4980469 1032.7235 L 9.4980469 1038.4423 L 11.763672 1038.4423 L 11.763672 1032.8915 C 11.763672 1031.7217 12.255719 1031.1278 13.240234 1031.1278 C 14.328771 1031.1278 14.875 1031.8327 14.875 1033.2255 L 14.875 1036.2626 L 17.125 1036.2626 L 17.125 1033.2255 C 17.125 1031.8327 17.671229 1031.1278 18.759766 1031.1278 C 19.744281 1031.1278 20.236328 1031.7217 20.236328 1032.8915 L 20.236328 1038.4423 L 22.501953 1038.4423 L 22.501953 1032.7235 C 22.501953 1031.555 22.204932 1030.6273 21.607422 1029.9403 C 20.991029 1029.2533 20.183395 1028.9012 19.181641 1028.9012 C 18.022387 1028.9012 17.144726 1029.346 16.564453 1030.2372 L 16 1031.1825 L 15.435547 1030.2372 C 14.855157 1029.346 13.977495 1028.9012 12.818359 1028.9012 z " /></g><style
     type="text/css"
     id="style831">
	.st0{fill:#A6CE39;}
	.st1{fill:#FFFFFF;}
</style></svg>
