<?xml version="1.0" encoding="UTF-8" standalone="no"?>
<svg
   xmlns:dc="http://purl.org/dc/elements/1.1/"
   xmlns:cc="http://creativecommons.org/ns#"
   xmlns:rdf="http://www.w3.org/1999/02/22-rdf-syntax-ns#"
   xmlns:svg="http://www.w3.org/2000/svg"
   xmlns="http://www.w3.org/2000/svg"
   xmlns:sodipodi="http://sodipodi.sourceforge.net/DTD/sodipodi-0.dtd"
   xmlns:inkscape="http://www.inkscape.org/namespaces/inkscape"
   width="32"
   height="32"
   viewBox="0 0 32 32"
   id="svg2"
   version="1.1"
   inkscape:version="1.0.1 (3bc2e813f5, 2020-09-07)"
   sodipodi:docname="orcid_logo_32.svg"
   inkscape:export-filename="/home/zipola/Projektit/tuomosipola.github.io/pics/orcid_logo_32.png"
   inkscape:export-xdpi="96"
   inkscape:export-ydpi="96">
  <defs
     id="defs4">
	
	
	
</defs>
  <sodipodi:namedview
     id="base"
     pagecolor="#ffffff"
     bordercolor="#666666"
     borderopacity="1.0"
     inkscape:pageopacity="0.0"
     inkscape:pageshadow="2"
     inkscape:zoom="7.9195959"
     inkscape:cx="2.1035109"
     inkscape:cy="5.3355112"
     inkscape:document-units="px"
     inkscape:current-layer="layer1"
     showgrid="false"
     units="px"
     width="32in"
     inkscape:window-width="1920"
     inkscape:window-height="1016"
     inkscape:window-x="0"
     inkscape:window-y="27"
     inkscape:window-maximized="1"
     fit-margin-top="0"
     fit-margin-left="0"
     fit-margin-right="0"
     fit-margin-bottom="0"
     inkscape:document-rotation="0" />
  <metadata
     id="metadata7">
    <rdf:RDF>
      <cc:Work
         rdf:about="">
        <dc:format>image/svg+xml</dc:format>
        <dc:type
           rdf:resource="http://purl.org/dc/dcmitype/StillImage" />
        <dc:title />
      </cc:Work>
    </rdf:RDF>
  </metadata>
  <g
     inkscape:label="Taso 1"
     inkscape:groupmode="layer"
     id="layer1"
     transform="translate(0,-1020.0946)">
    <path
       id="path833"
       style="fill:#333333;fill-opacity:1;stroke-width:1"
       d="m 16,1020.0946 c -8.8375,0 -16,7.1625 -16,16 0,8.8375 7.1625,16 16,16 8.8375,0 16,-7.1625 16,-16 0,-8.8375 -7.1625,-16 -16,-16 z m -6.175782,5.8379 c 0.7,0 1.261719,0.5742 1.261719,1.2617 0,0.6875 -0.561719,1.2637 -1.261719,1.2637 -0.7,0 -1.261718,-0.5762 -1.261718,-1.2637 0,-0.7 0.561718,-1.2617 1.261718,-1.2617 z m -0.96289,4.0488 h 1.925781 v 6.0508 7.3379 H 8.861328 Z m 4.75,0 H 18.8125 c 4.95,0 7.125,3.5387 7.125,6.7012 0,3.4375 -2.689063,6.6992 -7.101563,6.6992 h -5.224609 z m 1.925781,1.7383 v 9.9258 h 3.0625 c 4.3625,0 5.361328,-3.3129 5.361328,-4.9629 0,-2.6875 -1.710937,-4.9629 -5.460937,-4.9629 z" />
  </g>
  <style
     type="text/css"
     id="style831">
	.st0{fill:#A6CE39;}
	.st1{fill:#FFFFFF;}
</style>
</svg>
