<?xml version="1.0" encoding="UTF-8" standalone="no"?>
<!-- Created with Inkscape (http://www.inkscape.org/) -->

<svg
   xmlns:dc="http://purl.org/dc/elements/1.1/"
   xmlns:cc="http://creativecommons.org/ns#"
   xmlns:rdf="http://www.w3.org/1999/02/22-rdf-syntax-ns#"
   xmlns:svg="http://www.w3.org/2000/svg"
   xmlns="http://www.w3.org/2000/svg"
   xmlns:sodipodi="http://sodipodi.sourceforge.net/DTD/sodipodi-0.dtd"
   xmlns:inkscape="http://www.inkscape.org/namespaces/inkscape"
   width="32"
   height="32"
   viewBox="0 0 32 32"
   id="svg2"
   version="1.1"
   inkscape:version="0.92.2 (5c3e80d, 2017-08-06)"
   sodipodi:docname="rddt_logo_32.svg"
   inkscape:export-filename="/home/zipola/Projektit/tuomosipola.github.io/pics/rddt_logo_32.png"
   inkscape:export-xdpi="96"
   inkscape:export-ydpi="96">
  <defs
     id="defs4" />
  <sodipodi:namedview
     id="base"
     pagecolor="#ffffff"
     bordercolor="#666666"
     borderopacity="1.0"
     inkscape:pageopacity="0.0"
     inkscape:pageshadow="2"
     inkscape:zoom="3.959798"
     inkscape:cx="-61.098662"
     inkscape:cy="5.6054263"
     inkscape:document-units="px"
     inkscape:current-layer="layer1"
     showgrid="false"
     units="px"
     width="32in"
     inkscape:window-width="1360"
     inkscape:window-height="704"
     inkscape:window-x="0"
     inkscape:window-y="27"
     inkscape:window-maximized="1" />
  <metadata
     id="metadata7">
    <rdf:RDF>
      <cc:Work
         rdf:about="">
        <dc:format>image/svg+xml</dc:format>
        <dc:type
           rdf:resource="http://purl.org/dc/dcmitype/StillImage" />
        <dc:title />
      </cc:Work>
    </rdf:RDF>
  </metadata>
  <g
     inkscape:label="Taso 1"
     inkscape:groupmode="layer"
     id="layer1"
     transform="translate(0,-1020.3622)">
    <path
       style="opacity:1;fill:#333333;fill-opacity:1;fill-rule:nonzero;stroke:none;stroke-width:4.22900009;stroke-linecap:round;stroke-linejoin:round;stroke-miterlimit:4;stroke-dasharray:none;stroke-dashoffset:0;stroke-opacity:1"
       d="M 16 0 C 7.163444 0 0 7.163444 0 16 C 0 24.836556 7.163444 32 16 32 C 24.836556 32 32 24.836556 32 16 C 32 7.163444 24.836556 0 16 0 z M 23.132812 5.9296875 C 24.006871 5.9736875 24.824219 6.6642625 24.824219 7.7265625 C 24.824219 9.0985625 23.438506 9.9348406 22.207031 9.3066406 C 21.693909 9.0447406 21.442423 8.7244844 21.345703 8.2089844 C 21.307478 8.0051844 21.258268 7.8378906 21.236328 7.8378906 C 21.214378 7.8378906 20.482304 7.6861 19.609375 7.5 C 18.736443 7.3139 17.931103 7.1601562 17.818359 7.1601562 C 17.655398 7.1601562 17.589294 7.3066875 17.490234 7.8671875 C 17.421704 8.2549875 17.25983 9.051225 17.130859 9.640625 C 17.001888 10.230025 16.827521 11.055356 16.744141 11.472656 L 16.591797 12.234375 L 16.945312 12.285156 C 17.139475 12.315356 17.590228 12.367344 17.949219 12.402344 C 19.259398 12.530344 21.29308 13.220828 22.435547 13.923828 L 23.029297 14.287109 L 23.605469 13.996094 C 25.096966 13.241494 26.764551 13.963706 27.230469 15.566406 C 27.396528 16.137806 27.395282 16.236284 27.222656 16.833984 C 27.077714 17.335884 26.909055 17.604631 26.480469 18.019531 C 25.940475 18.542331 25.927734 18.572803 25.927734 19.220703 C 25.927734 21.363703 24.323052 23.516953 21.757812 24.814453 C 20.933594 25.231353 20.092741 25.523122 18.933594 25.794922 C 18.274343 25.949622 17.464449 26.031641 16.339844 26.056641 C 14.619058 26.095641 14.528027 26.088759 13.181641 25.818359 C 9.1175578 25.005159 6.0742188 22.181103 6.0742188 19.220703 C 6.0742187 18.572803 6.0595242 18.542331 5.5195312 18.019531 C 5.0909453 17.604631 4.9242379 17.335884 4.7792969 16.833984 C 4.6066089 16.236284 4.6053724 16.137806 4.7714844 15.566406 C 5.2371394 13.964206 6.9061402 13.242688 8.4101562 13.992188 L 8.9882812 14.279297 L 9.5742188 13.917969 C 10.843044 13.137269 12.722955 12.532669 14.435547 12.355469 C 15.000041 12.296469 15.488841 12.224359 15.519531 12.193359 C 15.577571 12.135359 15.617624 11.955575 16.291016 8.796875 C 16.857166 6.141475 16.829662 6.2370219 17.035156 6.1074219 C 17.169748 6.0224219 17.723707 6.0942406 19.066406 6.3691406 C 20.080213 6.5765406 21.019194 6.7869375 21.15625 6.8359375 C 21.354744 6.9089375 21.458213 6.8625219 21.664062 6.6074219 C 22.063484 6.1114219 22.608377 5.9036875 23.132812 5.9296875 z M 12.171875 16.216797 C 12.029263 16.216797 11.8779 16.262516 11.607422 16.353516 C 10.847332 16.606016 10.472091 17.126141 10.472656 17.931641 C 10.473178 18.634441 10.760668 19.137825 11.341797 19.453125 C 11.932428 19.773525 12.613447 19.702019 13.160156 19.261719 C 14.209072 18.417219 13.950405 16.837316 12.683594 16.353516 C 12.448224 16.264816 12.314484 16.216797 12.171875 16.216797 z M 19.830078 16.216797 C 19.687468 16.216797 19.553728 16.262516 19.318359 16.353516 C 18.457286 16.682416 18.012353 17.536809 18.248047 18.412109 C 18.375452 18.885309 18.676306 19.223906 19.214844 19.503906 C 19.672501 19.741906 20.095542 19.726772 20.634766 19.451172 C 21.234238 19.145372 21.52678 18.645287 21.527344 17.929688 C 21.527945 17.124188 21.154621 16.604063 20.394531 16.351562 C 20.124054 16.262862 19.972689 16.216797 19.830078 16.216797 z M 12.066406 21.931641 C 11.75016 21.931641 11.643988 22.344687 11.890625 22.617188 C 12.19993 22.958888 13.256088 23.428472 14.189453 23.638672 C 16.191613 24.089372 18.683258 23.709119 19.925781 22.761719 C 20.181685 22.566619 20.289385 22.401075 20.265625 22.234375 C 20.215134 21.880475 19.807171 21.869637 19.306641 22.210938 C 17.75269 23.275238 14.255822 23.279256 12.707031 22.222656 C 12.477663 22.066156 12.189602 21.9375 12.066406 21.9375 L 12.066406 21.931641 z "
       transform="translate(0,1020.3622)"
       id="path4273" />
  </g>
</svg>
