<?xml version="1.0" encoding="UTF-8" standalone="no"?>
<!-- Created with Inkscape (http://www.inkscape.org/) -->

<svg
   xmlns:dc="http://purl.org/dc/elements/1.1/"
   xmlns:cc="http://creativecommons.org/ns#"
   xmlns:rdf="http://www.w3.org/1999/02/22-rdf-syntax-ns#"
   xmlns:svg="http://www.w3.org/2000/svg"
   xmlns="http://www.w3.org/2000/svg"
   xmlns:sodipodi="http://sodipodi.sourceforge.net/DTD/sodipodi-0.dtd"
   xmlns:inkscape="http://www.inkscape.org/namespaces/inkscape"
   width="32"
   height="32"
   viewBox="0 0 32 32"
   id="svg2"
   version="1.1"
   inkscape:version="0.92.2 (5c3e80d, 2017-08-06)"
   sodipodi:docname="sndcld_logo_32.svg"
   inkscape:export-filename="/home/zipola/Projektit/tuomosipola.github.io/pics/sndcld_logo_32.png"
   inkscape:export-xdpi="96"
   inkscape:export-ydpi="96">
  <defs
     id="defs4" />
  <sodipodi:namedview
     id="base"
     pagecolor="#ffffff"
     bordercolor="#666666"
     borderopacity="1.0"
     inkscape:pageopacity="0.0"
     inkscape:pageshadow="2"
     inkscape:zoom="3.959798"
     inkscape:cx="-19.956832"
     inkscape:cy="6.905358"
     inkscape:document-units="px"
     inkscape:current-layer="layer1"
     showgrid="false"
     units="px"
     width="32in"
     inkscape:window-width="1360"
     inkscape:window-height="704"
     inkscape:window-x="0"
     inkscape:window-y="27"
     inkscape:window-maximized="1"
     showguides="true"
     inkscape:guide-bbox="true" />
  <metadata
     id="metadata7">
    <rdf:RDF>
      <cc:Work
         rdf:about="">
        <dc:format>image/svg+xml</dc:format>
        <dc:type
           rdf:resource="http://purl.org/dc/dcmitype/StillImage" />
        <dc:title />
      </cc:Work>
    </rdf:RDF>
  </metadata>
  <g
     inkscape:label="Taso 1"
     inkscape:groupmode="layer"
     id="layer1"
     transform="translate(0,-1020.3622)">
    <path
       style="opacity:1;fill:#333333;fill-opacity:1;fill-rule:nonzero;stroke:none;stroke-width:4.22900009;stroke-linecap:round;stroke-linejoin:round;stroke-miterlimit:4;stroke-dasharray:none;stroke-dashoffset:0;stroke-opacity:1"
       d="M 16 0 A 16 16 0 0 0 0 16 A 16 16 0 0 0 16 32 A 16 16 0 0 0 32 16 A 16 16 0 0 0 16 0 z M 18.355469 9.5566406 C 18.745697 9.5381531 19.13781 9.5637125 19.501953 9.6328125 C 21.581063 10.027313 23.175873 11.703894 23.474609 13.808594 C 23.488799 13.908594 23.506452 13.999819 23.513672 14.011719 C 23.520972 14.023719 23.647203 13.993406 23.792969 13.941406 C 24.02915 13.859406 24.114303 13.848656 24.583984 13.847656 C 25.098974 13.847656 25.120799 13.857869 25.488281 13.980469 C 26.953541 14.499569 27.709927 16.019694 27.238281 17.496094 C 26.955449 18.381394 26.208136 19.072866 25.265625 19.322266 C 24.966855 19.402266 24.953323 19.403156 20.914062 19.410156 C 18.684983 19.420156 16.825701 19.410091 16.783203 19.400391 C 16.740703 19.390391 16.666606 19.342869 16.619141 19.292969 L 16.533203 19.201172 L 16.523438 14.724609 C 16.515738 11.518509 16.523789 10.207322 16.552734 10.107422 C 16.599674 9.9455219 16.698422 9.8914344 17.220703 9.7402344 C 17.577011 9.6370844 17.965241 9.5751281 18.355469 9.5566406 z M 15.943359 10.193359 C 16.007561 10.190884 16.07345 10.217791 16.140625 10.275391 L 16.242188 10.363281 L 16.267578 11.158203 C 16.282228 11.595103 16.320232 13.05665 16.351562 14.40625 C 16.402123 16.58395 16.403099 16.945647 16.355469 17.623047 C 16.325979 18.042847 16.290844 18.557678 16.277344 18.767578 C 16.252364 19.155978 16.201316 19.322781 16.095703 19.363281 C 15.987232 19.406281 15.833079 19.386266 15.753906 19.322266 L 15.753906 19.320312 C 15.650238 19.236312 15.622975 19.010847 15.566406 17.748047 C 15.523656 16.793747 15.553156 13.688066 15.628906 11.134766 L 15.650391 10.392578 L 15.753906 10.291016 C 15.816642 10.228316 15.879157 10.195834 15.943359 10.193359 z M 14.976562 10.75 C 15.068755 10.73945 15.16363 10.776738 15.222656 10.867188 C 15.275916 10.949188 15.286779 11.168094 15.318359 12.621094 L 15.382812 15.537109 C 15.397832 16.227209 15.399096 17.021281 15.384766 17.300781 C 15.309626 18.772681 15.276347 19.215297 15.236328 19.279297 C 15.195928 19.345297 15.054067 19.429128 14.996094 19.423828 C 14.982044 19.423828 14.937154 19.408578 14.896484 19.392578 L 14.896484 19.390625 C 14.742884 19.328625 14.720385 19.254756 14.691406 18.722656 C 14.605206 17.139456 14.59541 16.691284 14.625 15.208984 C 14.64235 14.339384 14.668191 13.040012 14.681641 12.320312 C 14.697411 11.476212 14.721577 10.979575 14.748047 10.921875 C 14.794932 10.819625 14.88437 10.76055 14.976562 10.75 z M 12.193359 11.414062 C 12.221482 11.422313 12.246256 11.441609 12.279297 11.474609 C 12.376617 11.571609 12.379408 11.595694 12.453125 14.058594 C 12.513875 16.088594 12.507954 17.29275 12.433594 18.34375 C 12.364764 19.31635 12.346113 19.382812 12.138672 19.382812 C 12.071612 19.382812 11.994612 19.358172 11.96875 19.326172 C 11.865418 19.201672 11.759583 17.028169 11.792969 15.730469 C 11.865979 12.892969 11.914978 11.597591 11.951172 11.525391 C 11.972602 11.482391 12.036694 11.435422 12.09375 11.419922 C 12.13502 11.408922 12.165237 11.405812 12.193359 11.414062 z M 13.080078 11.5 C 13.123632 11.49865 13.166063 11.522966 13.226562 11.572266 C 13.322002 11.654266 13.32171 11.655769 13.353516 12.417969 C 13.393326 13.370869 13.46642 16.121578 13.466797 16.705078 C 13.467087 17.152478 13.370199 18.844969 13.330078 19.105469 C 13.317768 19.186469 13.282853 19.279353 13.251953 19.314453 C 13.174973 19.402453 12.981179 19.396688 12.898438 19.304688 L 12.898438 19.310547 C 12.848797 19.256547 12.828799 19.164053 12.818359 18.939453 C 12.810759 18.774853 12.77943 18.222844 12.75 17.714844 C 12.70613 16.957544 12.704388 16.556169 12.736328 15.480469 C 12.757748 14.759169 12.786151 13.606922 12.800781 12.919922 L 12.828125 11.669922 L 12.929688 11.582031 C 12.992346 11.528131 13.036524 11.50135 13.080078 11.5 z M 11.240234 11.601562 C 11.289753 11.609938 11.335858 11.641313 11.369141 11.695312 C 11.403931 11.753312 11.438419 12.411162 11.501953 14.226562 C 11.549183 15.575963 11.586368 16.729063 11.585938 16.789062 C 11.585512 16.849062 11.548763 17.420847 11.501953 18.060547 C 11.443833 18.854847 11.399516 19.250741 11.365234 19.306641 C 11.306864 19.401641 11.134636 19.417238 11.052734 19.335938 C 11.018732 19.302089 10.990755 19.160261 10.974609 18.927734 C 10.960989 18.731634 10.935186 18.349978 10.916016 18.080078 C 10.843906 17.064978 10.83421 16.484203 10.875 15.345703 C 10.89808 14.701303 10.925897 13.911697 10.935547 13.591797 C 10.990947 11.755997 10.992415 11.722038 11.085938 11.648438 C 11.136865 11.607938 11.190716 11.593187 11.240234 11.601562 z M 13.976562 11.683594 C 14.057186 11.663319 14.148271 11.686669 14.21875 11.761719 C 14.29547 11.843719 14.298683 11.890303 14.353516 13.533203 C 14.432286 15.893603 14.433522 17.321134 14.357422 18.365234 C 14.315132 18.945234 14.278851 19.243875 14.244141 19.296875 C 14.187181 19.384875 14.054596 19.420759 13.947266 19.380859 C 13.804697 19.327859 13.779557 19.248059 13.75 18.755859 C 13.643152 16.976659 13.637515 16.693241 13.675781 15.494141 C 13.697161 14.824541 13.724188 13.760559 13.736328 13.130859 C 13.748478 12.501059 13.774912 11.932288 13.794922 11.867188 C 13.825817 11.766638 13.895939 11.703869 13.976562 11.683594 z M 10.212891 12.017578 C 10.268959 12.005766 10.32993 12.0192 10.373047 12.0625 C 10.433227 12.1235 10.445804 12.234972 10.480469 13.076172 C 10.501889 13.596072 10.535217 14.338716 10.554688 14.728516 C 10.624908 16.133916 10.635567 16.954978 10.591797 17.455078 C 10.533127 18.125478 10.445602 19.209419 10.445312 19.261719 C 10.444695 19.372719 10.265448 19.455725 10.167969 19.390625 C 10.082629 19.334625 10.052583 19.203603 10.029297 18.783203 C 10.016007 18.543203 9.9817249 18.000072 9.9511719 17.576172 C 9.9012969 16.883872 9.9010361 16.652288 9.9511719 15.304688 C 9.9818939 14.479188 10.017986 13.443906 10.03125 13.003906 C 10.04451 12.564106 10.069368 12.167447 10.085938 12.123047 C 10.107233 12.065997 10.156822 12.029391 10.212891 12.017578 z M 9.34375 12.886719 C 9.3991767 12.892694 9.4554827 12.928688 9.4863281 12.992188 C 9.5125151 13.045188 9.5468825 13.409913 9.5703125 13.882812 C 9.5921065 14.322512 9.6353946 15.156528 9.6660156 15.736328 C 9.7234886 16.824628 9.7105196 17.235009 9.5722656 18.599609 C 9.5524466 18.795309 9.5357913 19.025075 9.5351562 19.109375 C 9.5344963 19.193375 9.5128941 19.291272 9.4863281 19.326172 C 9.4156651 19.419172 9.251004 19.407594 9.2089844 19.308594 L 9.2089844 19.306641 C 9.1901794 19.261641 9.1420484 18.776263 9.1015625 18.226562 C 9.0610825 17.676762 9.0212197 17.135991 9.0117188 17.025391 C 9.0022188 16.914691 9.0083788 16.496656 9.0273438 16.097656 C 9.1482006 13.552756 9.1793213 13.036137 9.2109375 12.960938 C 9.235039 12.903537 9.2883233 12.880744 9.34375 12.886719 z M 7.5390625 14.185547 C 7.6228365 14.185547 7.6677571 14.345178 7.6992188 14.767578 C 7.7118768 14.937478 7.748529 15.306038 7.78125 15.585938 C 7.870496 16.349338 7.8575386 17.295022 7.7441406 18.357422 C 7.6924016 18.842222 7.6393568 19.255291 7.6269531 19.275391 C 7.5919031 19.331391 7.4378358 19.317859 7.4140625 19.255859 C 7.4023525 19.224859 7.3672995 18.910941 7.3359375 18.556641 C 7.3045785 18.202341 7.2644607 17.748728 7.2460938 17.548828 C 7.2037118 17.087628 7.2021685 16.487484 7.2441406 16.021484 C 7.2621546 15.821584 7.3050096 15.34855 7.3378906 14.96875 C 7.3707726 14.58925 7.4146949 14.257522 7.4355469 14.232422 C 7.4564009 14.208422 7.5022972 14.185547 7.5390625 14.185547 z M 6.5820312 14.279297 C 6.724197 14.225297 6.7405593 14.310453 6.8847656 15.876953 C 6.9252536 16.316753 6.9643372 16.696503 6.9726562 16.720703 C 6.9809763 16.745703 6.96589 16.965338 6.9375 17.210938 C 6.909107 17.456537 6.8687992 17.846272 6.8476562 18.076172 C 6.7861223 18.745072 6.7297462 19.144559 6.6914062 19.193359 C 6.6519613 19.244359 6.5691102 19.253937 6.5449219 19.210938 C 6.4797339 19.096538 6.288963 16.891106 6.3164062 16.566406 C 6.3282273 16.426406 6.3706012 15.926931 6.4101562 15.457031 C 6.4996303 14.394531 6.5130367 14.305797 6.5820312 14.279297 z M 8.453125 14.349609 C 8.4742242 14.353734 8.4949379 14.368984 8.5214844 14.396484 C 8.5752364 14.450484 8.5971729 14.583209 8.6425781 15.099609 C 8.6733371 15.449509 8.7194826 15.924297 8.7441406 16.154297 C 8.8039136 16.711597 8.7992362 16.933369 8.7070312 17.917969 C 8.6639762 18.377869 8.6193951 18.872378 8.6074219 19.017578 C 8.5785859 19.367378 8.4461341 19.502394 8.3222656 19.308594 L 8.3222656 19.306641 C 8.2934666 19.261641 8.2599129 19.086216 8.2480469 18.916016 C 8.2217849 18.539416 8.1215816 17.173656 8.1054688 16.972656 C 8.0990288 16.891656 8.1074469 16.655313 8.1230469 16.445312 C 8.228268 15.025613 8.2681978 14.528456 8.2851562 14.472656 C 8.2958013 14.437656 8.3378382 14.390741 8.3789062 14.369141 C 8.4088407 14.353141 8.4320258 14.345484 8.453125 14.349609 z M 5.7285156 14.662109 C 5.7840463 14.669112 5.829167 14.810222 5.8613281 15.076172 C 5.8830771 15.256172 5.9417945 15.713097 5.9902344 16.091797 C 6.0879984 16.856197 6.090717 16.774212 5.890625 18.257812 C 5.815029 18.818213 5.8049639 18.856587 5.7304688 18.867188 C 5.6652587 18.877187 5.6473604 18.858866 5.6308594 18.759766 C 5.6197694 18.692766 5.5868106 18.404441 5.5566406 18.119141 C 5.5264646 17.833841 5.4842977 17.490069 5.4648438 17.355469 C 5.4147467 17.009169 5.4206517 16.589906 5.4804688 16.128906 C 5.5088468 15.910306 5.55251 15.512794 5.578125 15.246094 C 5.603736 14.979594 5.6451669 14.734472 5.6699219 14.701172 C 5.6904389 14.673572 5.7100054 14.659775 5.7285156 14.662109 z M 4.8847656 15.457031 C 4.9707806 15.457031 4.9719746 15.468066 5.0820312 16.197266 L 5.1757812 16.810547 L 5.1015625 17.251953 C 5.0614155 17.494553 5.0294899 17.725625 5.0292969 17.765625 C 5.0291046 17.804625 5.0110514 17.899709 4.9902344 17.974609 C 4.9432954 18.143609 4.8269591 18.165719 4.796875 18.011719 C 4.786179 17.957719 4.7420548 17.662975 4.6992188 17.359375 L 4.6210938 16.806641 L 4.6992188 16.232422 C 4.8032597 15.461222 4.8051539 15.457031 4.8847656 15.457031 z "
       transform="translate(0,1020.3622)"
       id="path4273" />
    <path
       id="path3335"
       d="m -36.022856,1020.3622 a 16,16 0 0 0 -16,16 16,16 0 0 0 16,16 16,16 0 0 0 16,-16 16,16 0 0 0 -16,-16 z"
       style="opacity:1;fill:#333333;fill-opacity:1;fill-rule:nonzero;stroke:none;stroke-width:4.22900009;stroke-linecap:round;stroke-linejoin:round;stroke-miterlimit:4;stroke-dasharray:none;stroke-dashoffset:0;stroke-opacity:1"
       inkscape:connector-curvature="0" />
    <path
       inkscape:connector-curvature="0"
       id="path3337"
       d="m -41.854272,1039.7533 c -0.08534,-0.056 -0.115128,-0.1878 -0.138414,-0.6082 -0.01329,-0.24 -0.04916,-0.7832 -0.07971,-1.2071 -0.04988,-0.6923 -0.04985,-0.9243 2.91e-4,-2.2719 0.03072,-0.8255 0.0667,-1.8605 0.07997,-2.3005 0.01326,-0.4398 0.03768,-0.836 0.05425,-0.8804 0.04259,-0.1141 0.202453,-0.1476 0.288686,-0.061 0.06018,0.061 0.07189,0.1722 0.106555,1.0134 0.02142,0.5199 0.05488,1.2641 0.07435,1.6539 0.07022,1.4054 0.0816,2.226 0.03783,2.7261 -0.05867,0.6704 -0.147045,1.7534 -0.147334,1.8057 -6.17e-4,0.111 -0.179019,0.1945 -0.276498,0.1294 z m 3.779337,-0.01 c -0.142569,-0.053 -0.167988,-0.1333 -0.197545,-0.6255 -0.106848,-1.7792 -0.113376,-2.0627 -0.07511,-3.2618 0.02138,-0.6696 0.04881,-1.7329 0.06095,-2.3626 0.01215,-0.6298 0.03847,-1.1983 0.05848,-1.2634 0.06179,-0.2011 0.282909,-0.2567 0.423867,-0.1066 0.07672,0.082 0.08034,0.129 0.135173,1.7719 0.07877,2.3604 0.0799,3.7874 0.0038,4.8315 -0.04229,0.58 -0.07856,0.8783 -0.11327,0.9313 -0.05696,0.088 -0.188993,0.1249 -0.296323,0.085 z m 0.94837,0.01 c -0.1536,-0.062 -0.176464,-0.1367 -0.205443,-0.6688 -0.0862,-1.5832 -0.09448,-2.0307 -0.06489,-3.513 0.01735,-0.8696 0.04255,-2.17 0.056,-2.8897 0.01577,-0.8441 0.03904,-1.3404 0.06551,-1.3981 0.09377,-0.2045 0.356628,-0.2349 0.474681,-0.054 0.05326,0.082 0.06542,0.3013 0.097,1.7543 0.01986,0.9137 0.04839,2.2259 0.0634,2.9161 0.01502,0.6901 0.01563,1.4834 0.0013,1.7629 -0.07514,1.4719 -0.108307,1.9143 -0.148326,1.9783 -0.0404,0.066 -0.181815,0.1502 -0.239788,0.1449 -0.01405,0 -0.05884,-0.016 -0.09951,-0.032 z m 1.88682,0.01 c -0.0425,-0.01 -0.116103,-0.058 -0.163568,-0.1079 l -0.0863,-0.092 -0.01075,-4.477 c -0.0077,-3.2061 7.05e-4,-4.5165 0.02965,-4.6164 0.04694,-0.1619 0.145379,-0.2162 0.66766,-0.3674 0.712616,-0.2063 1.553077,-0.2462 2.281363,-0.108 2.07911,0.3945 3.6754,2.0722 3.974136,4.1769 0.01419,0.1 0.0317,0.1913 0.03892,0.2032 0.0073,0.012 0.132396,-0.02 0.278162,-0.072 0.236181,-0.082 0.322406,-0.092 0.792087,-0.093 0.51499,0 0.535665,0.01 0.903147,0.1326 1.46526,0.5191 2.222423,2.0398 1.750777,3.5162 -0.282832,0.8853 -1.029975,1.5773 -1.972486,1.8267 -0.29877,0.08 -0.313389,0.08 -4.35265,0.087 -2.22908,0.01 -4.087643,-3e-4 -4.130141,-0.01 z m -8.460732,-0.094 c -0.0288,-0.045 -0.06194,-0.2206 -0.07381,-0.3908 -0.02626,-0.3766 -0.12653,-1.7436 -0.142643,-1.9446 -0.0064,-0.081 0.001,-0.3171 0.01663,-0.5271 0.105221,-1.4197 0.146332,-1.9161 0.16329,-1.9719 0.01064,-0.035 0.05295,-0.082 0.09401,-0.1036 0.05987,-0.032 0.08779,-0.027 0.140878,0.028 0.05375,0.054 0.07674,0.187 0.122146,0.7034 0.03076,0.3499 0.07611,0.8242 0.100764,1.0542 0.05977,0.5573 0.05513,0.7782 -0.03708,1.7628 -0.04305,0.4599 -0.08808,0.9549 -0.100049,1.1001 -0.02884,0.3498 -0.160279,0.4841 -0.284147,0.2903 z m 0.88721,0 c -0.0188,-0.045 -0.06731,-0.5317 -0.107797,-1.0814 -0.04048,-0.5498 -0.08138,-1.0902 -0.09088,-1.2008 -0.0095,-0.1107 -0.0018,-0.5278 0.01719,-0.9268 0.120857,-2.5449 0.150888,-3.061 0.182504,-3.1362 0.0482,-0.1148 0.214963,-0.097 0.276654,0.03 0.02619,0.053 0.06049,0.4177 0.08392,0.8906 0.02179,0.4397 0.06468,1.2739 0.0953,1.8537 0.05747,1.0883 0.04394,1.4992 -0.09431,2.8638 -0.01982,0.1957 -0.03656,0.4245 -0.0372,0.5088 -6.6e-4,0.084 -0.02288,0.1819 -0.04945,0.2168 -0.07066,0.093 -0.233921,0.082 -0.275941,-0.017 z m 1.842446,0.03 c -0.03423,-0.033 -0.06083,-0.1754 -0.07705,-0.409 -0.01362,-0.1961 -0.04046,-0.5774 -0.05963,-0.8473 -0.07211,-1.0151 -0.08058,-1.5973 -0.03979,-2.7358 0.02308,-0.6444 0.04988,-1.4333 0.05953,-1.7532 0.0554,-1.8358 0.058,-1.869 0.151523,-1.9426 0.101855,-0.081 0.215718,-0.061 0.282284,0.047 0.03479,0.058 0.06935,0.7151 0.132884,2.5305 0.04723,1.3494 0.08552,2.5026 0.08509,2.5626 -4.26e-4,0.06 -0.03906,0.6325 -0.08587,1.2722 -0.05812,0.7943 -0.101007,1.1891 -0.135289,1.245 -0.05837,0.095 -0.231795,0.1113 -0.313697,0.03 z m 0.917682,-0.01 c -0.103332,-0.1245 -0.21027,-2.2988 -0.176884,-3.5965 0.07301,-2.8375 0.121662,-4.1339 0.157856,-4.2061 0.02143,-0.043 0.08566,-0.09 0.142716,-0.1055 0.08254,-0.022 0.120719,-0.011 0.186801,0.055 0.09732,0.097 0.09893,0.1213 0.172647,2.5842 0.06075,2.03 0.05543,3.2347 -0.01893,4.2857 -0.06883,0.9726 -0.08781,1.0395 -0.295251,1.0395 -0.06706,0 -0.143089,-0.025 -0.168951,-0.057 z m 0.928258,-0.016 c -0.04964,-0.054 -0.06968,-0.148 -0.08012,-0.3726 -0.0076,-0.1646 -0.03801,-0.715 -0.06744,-1.223 -0.04387,-0.7573 -0.0465,-1.1599 -0.01456,-2.2356 0.02142,-0.7213 0.05093,-1.8738 0.06556,-2.5608 l 0.0266,-1.249 0.100824,-0.088 c 0.125316,-0.1078 0.176374,-0.1086 0.297373,-0.01 0.09544,0.082 0.09567,0.083 0.127476,0.8452 0.03981,0.9529 0.111777,3.7051 0.112154,4.2886 2.9e-4,0.4474 -0.09485,2.1385 -0.134971,2.399 -0.01231,0.081 -0.04768,0.1739 -0.07858,0.209 -0.07698,0.088 -0.271556,0.082 -0.354298,-0.01 z m 2.856047,0.01 c -0.103668,-0.084 -0.130476,-0.3093 -0.187045,-1.5721 -0.04275,-0.9543 -0.01356,-4.0601 0.06219,-6.6134 l 0.02205,-0.7431 0.101999,-0.1021 c 0.125471,-0.1254 0.252369,-0.1302 0.386718,-0.015 l 0.101436,0.088 0.02664,0.7941 c 0.01465,0.4369 0.05227,1.8983 0.0836,3.2479 0.05056,2.1777 0.05093,2.5393 0.0033,3.2167 -0.02949,0.4198 -0.06468,0.9351 -0.07818,1.145 -0.02498,0.3884 -0.07571,0.5549 -0.181323,0.5954 -0.108471,0.043 -0.262236,0.024 -0.341409,-0.04 z m -8.339635,-0.065 c -0.01171,-0.031 -0.04695,-0.3454 -0.07832,-0.6997 -0.03136,-0.3543 -0.07205,-0.8079 -0.09041,-1.0078 -0.04238,-0.4612 -0.04263,-1.0606 -6.6e-4,-1.5266 0.01801,-0.1999 0.05965,-0.6742 0.09254,-1.054 0.03288,-0.3795 0.07684,-0.7108 0.0977,-0.7359 0.02085,-0.024 0.06799,-0.046 0.104757,-0.046 0.08377,0 0.12723,0.1592 0.158692,0.5816 0.01266,0.1699 0.04979,0.5379 0.08251,0.8178 0.08925,0.7634 0.07673,1.709 -0.03666,2.7714 -0.05174,0.4848 -0.104219,0.8977 -0.116623,0.9178 -0.03505,0.056 -0.189752,0.043 -0.213526,-0.019 z m -0.870102,-0.045 c -0.06519,-0.1144 -0.254697,-2.3196 -0.227253,-2.6443 0.01182,-0.14 0.05386,-0.6389 0.09342,-1.1088 0.08947,-1.0625 0.102637,-1.1529 0.171631,-1.1794 0.142166,-0.054 0.158385,0.031 0.302592,1.5975 0.04049,0.4398 0.08042,0.8197 0.08874,0.8439 0.0083,0.025 -0.0081,0.2451 -0.0365,0.4907 -0.02839,0.2456 -0.06893,0.6346 -0.09007,0.8645 -0.06153,0.6689 -0.117174,1.0689 -0.155514,1.1177 -0.03944,0.051 -0.122854,0.061 -0.147042,0.018 z m -0.91349,-0.4522 c -0.01109,-0.067 -0.04486,-0.3538 -0.07503,-0.6391 -0.03018,-0.2853 -0.07077,-0.6288 -0.09023,-0.7634 -0.0501,-0.3463 -0.04503,-0.7672 0.01479,-1.2282 0.02838,-0.2186 0.07255,-0.6155 0.09816,-0.8822 0.02561,-0.2665 0.06682,-0.5119 0.09158,-0.5452 0.08207,-0.1104 0.149262,0.021 0.192144,0.3756 0.02175,0.18 0.07918,0.637 0.127621,1.0157 0.09776,0.7644 0.101543,0.6813 -0.09855,2.1649 -0.0756,0.5604 -0.08611,0.6004 -0.160606,0.611 -0.06521,0.01 -0.08338,-0.01 -0.09988,-0.1091 z m -0.833671,-0.7473 c -0.0107,-0.054 -0.0545,-0.3484 -0.09734,-0.652 l -0.07788,-0.5521 0.07754,-0.5747 c 0.104041,-0.7712 0.104876,-0.7748 0.184488,-0.7748 0.08601,0 0.08876,0.011 0.198814,0.7402 l 0.09241,0.6131 -0.07299,0.4411 c -0.04015,0.2426 -0.07315,0.4738 -0.07334,0.5138 -1.93e-4,0.039 -0.01738,0.1341 -0.0382,0.209 -0.04694,0.169 -0.16343,0.191 -0.193514,0.037 z"
       style="fill:#ffffff" />
  </g>
</svg>
