<?xml version="1.0" encoding="UTF-8" standalone="no"?>
<!-- Created with Inkscape (http://www.inkscape.org/) -->

<svg
   xmlns:dc="http://purl.org/dc/elements/1.1/"
   xmlns:cc="http://creativecommons.org/ns#"
   xmlns:rdf="http://www.w3.org/1999/02/22-rdf-syntax-ns#"
   xmlns:svg="http://www.w3.org/2000/svg"
   xmlns="http://www.w3.org/2000/svg"
   xmlns:sodipodi="http://sodipodi.sourceforge.net/DTD/sodipodi-0.dtd"
   xmlns:inkscape="http://www.inkscape.org/namespaces/inkscape"
   width="32"
   height="32"
   viewBox="0 0 32 32"
   id="svg2"
   version="1.1"
   inkscape:version="0.91 r13725"
   sodipodi:docname="sndcld_logo_32.svg"
   inkscape:export-filename="/home/zipola/Projektit/tuomosipola.github.io/pics/sndcld_logo_32.png"
   inkscape:export-xdpi="90"
   inkscape:export-ydpi="90">
  <defs
     id="defs4" />
  <sodipodi:namedview
     id="base"
     pagecolor="#ffffff"
     bordercolor="#666666"
     borderopacity="1.0"
     inkscape:pageopacity="0.0"
     inkscape:pageshadow="2"
     inkscape:zoom="2.8"
     inkscape:cx="-47.588069"
     inkscape:cy="-11.979195"
     inkscape:document-units="px"
     inkscape:current-layer="layer1"
     showgrid="false"
     units="px"
     width="32in"
     inkscape:window-width="1366"
     inkscape:window-height="704"
     inkscape:window-x="0"
     inkscape:window-y="27"
     inkscape:window-maximized="1"
     showguides="true"
     inkscape:guide-bbox="true" />
  <metadata
     id="metadata7">
    <rdf:RDF>
      <cc:Work
         rdf:about="">
        <dc:format>image/svg+xml</dc:format>
        <dc:type
           rdf:resource="http://purl.org/dc/dcmitype/StillImage" />
        <dc:title />
      </cc:Work>
    </rdf:RDF>
  </metadata>
  <g
     inkscape:label="Taso 1"
     inkscape:groupmode="layer"
     id="layer1"
     transform="translate(0,-1020.3622)">
    <path
       style="opacity:1;fill:#333333;fill-opacity:1;fill-rule:nonzero;stroke:none;stroke-width:4.22900009;stroke-linecap:round;stroke-linejoin:round;stroke-miterlimit:4;stroke-dasharray:none;stroke-dashoffset:0;stroke-opacity:1"
       d="M 16 0 A 16 16 0 0 0 0 16 A 16 16 0 0 0 16 32 A 16 16 0 0 0 32 16 A 16 16 0 0 0 16 0 z "
       transform="translate(0,1020.3622)"
       id="path4273" />
    <path
       style="fill:#ffffff"
       d="m 9.3449028,1040.446 c -0.097395,-0.064 -0.1313897,-0.2144 -0.157965,-0.6942 -0.015163,-0.2738 -0.056101,-0.8938 -0.090969,-1.3776 -0.05692,-0.79 -0.056886,-1.0548 3.318e-4,-2.5927 0.035062,-0.9421 0.076127,-2.1234 0.091265,-2.6255 0.015137,-0.5019 0.042998,-0.9541 0.061918,-1.0048 0.048601,-0.1302 0.2310498,-0.1684 0.3294625,-0.069 0.068685,0.069 0.082044,0.1965 0.121606,1.1565 0.024442,0.5934 0.062628,1.4427 0.084851,1.8875 0.080142,1.604 0.093127,2.5405 0.043178,3.1112 -0.066953,0.7651 -0.1678151,2.0011 -0.1681445,2.0608 -7.042e-4,0.1267 -0.2043051,0.2219 -0.3155535,0.1476 z m 4.3131642,-0.011 c -0.162707,-0.06 -0.191716,-0.1521 -0.225448,-0.7138 -0.12194,-2.0306 -0.129391,-2.3541 -0.08572,-3.7226 0.0244,-0.7642 0.0557,-1.9776 0.06956,-2.6963 0.01387,-0.7188 0.0439,-1.3676 0.06674,-1.4419 0.07052,-0.2294 0.322869,-0.2929 0.483738,-0.1216 0.08756,0.093 0.09169,0.1472 0.154266,2.0222 0.0899,2.6938 0.09118,4.3223 0.0043,5.5139 -0.04826,0.662 -0.08966,1.0024 -0.129269,1.0629 -0.065,0.1 -0.215689,0.1425 -0.338179,0.097 z m 1.082326,0.011 c -0.175296,-0.071 -0.201389,-0.156 -0.234462,-0.7633 -0.09838,-1.8068 -0.107821,-2.3176 -0.07406,-4.0092 0.0198,-0.9925 0.04856,-2.4765 0.06391,-3.2979 0.018,-0.9633 0.04455,-1.5297 0.07476,-1.5956 0.107018,-0.2334 0.407001,-0.2681 0.541729,-0.062 0.06078,0.093 0.07466,0.3438 0.110697,2.002 0.02266,1.0428 0.05523,2.5404 0.07236,3.328 0.01714,0.7876 0.01784,1.693 0.0015,2.0119 -0.08575,1.6798 -0.123605,2.1847 -0.169277,2.2578 -0.04611,0.075 -0.207496,0.1714 -0.273657,0.1654 -0.01604,0 -0.06715,-0.018 -0.113567,-0.036 z m 2.153331,0.011 c -0.0485,-0.011 -0.132502,-0.066 -0.186672,-0.1231 l -0.09849,-0.1053 -0.01227,-5.1094 c -0.0088,-3.659 8.04e-4,-5.1545 0.03384,-5.2685 0.05357,-0.1848 0.165914,-0.2467 0.761966,-0.4193 0.813273,-0.2354 1.772448,-0.2809 2.603603,-0.1232 2.372783,0.4502 4.194547,2.3649 4.535479,4.7669 0.01619,0.1141 0.03618,0.2183 0.04442,0.2318 0.0083,0.014 0.151096,-0.023 0.317452,-0.082 0.269541,-0.094 0.367945,-0.1053 0.903968,-0.1064 0.587732,0 0.611327,0.011 1.030716,0.1514 1.672226,0.5924 2.536337,2.3279 1.998072,4.0128 -0.322782,1.0104 -1.175458,1.8001 -2.251098,2.0847 -0.340971,0.091 -0.357654,0.091 -4.967457,0.099 -2.543935,0.011 -4.665018,-4e-4 -4.713518,-0.011 z m -9.6558012,-0.1076 c -0.032867,-0.051 -0.07069,-0.2517 -0.084232,-0.446 -0.029971,-0.4298 -0.1444015,-1.9899 -0.1627903,-2.2193 -0.00735,-0.092 0.00118,-0.3619 0.018979,-0.6015 0.1200834,-1.6203 0.1670006,-2.1868 0.1863545,-2.2505 0.012149,-0.04 0.060424,-0.093 0.1072928,-0.1182 0.068326,-0.036 0.1001844,-0.031 0.1607767,0.032 0.061344,0.062 0.08758,0.2134 0.1393992,0.8027 0.035104,0.3994 0.086856,0.9406 0.1149968,1.2031 0.068216,0.636 0.062914,0.8881 -0.042315,2.0118 -0.049136,0.5249 -0.1005172,1.0898 -0.1141811,1.2555 -0.032909,0.3992 -0.1829183,0.5525 -0.3242831,0.3313 z m 1.0125276,0 c -0.021461,-0.051 -0.076819,-0.6068 -0.1230231,-1.2341 -0.046198,-0.6275 -0.092872,-1.2442 -0.1037154,-1.3704 -0.010846,-0.1264 -0.00203,-0.6024 0.019612,-1.0578 0.1379277,-2.9043 0.1722005,-3.4933 0.2082824,-3.5792 0.055012,-0.131 0.2453261,-0.1109 0.3157307,0.034 0.029886,0.061 0.069036,0.4767 0.095776,1.0163 0.024872,0.5019 0.073813,1.4539 0.1087589,2.1156 0.065591,1.242 0.050149,1.7109 -0.1076336,3.2683 -0.022618,0.2233 -0.041724,0.4845 -0.042449,0.5807 -7.532e-4,0.096 -0.026113,0.2075 -0.056431,0.2474 -0.080644,0.1065 -0.2669619,0.094 -0.3149168,-0.02 z m 2.1026896,0.034 c -0.03906,-0.038 -0.06942,-0.2002 -0.08793,-0.4667 -0.01554,-0.2238 -0.04617,-0.659 -0.06805,-0.967 -0.0823,-1.1585 -0.09196,-1.8229 -0.04541,-3.1223 0.02634,-0.7354 0.05692,-1.6357 0.06794,-2.0008 0.06323,-2.0951 0.06619,-2.133 0.172926,-2.217 0.116242,-0.092 0.246188,-0.069 0.322156,0.054 0.0397,0.066 0.07914,0.8161 0.151654,2.8879 0.0539,1.54 0.0976,2.8561 0.09711,2.9246 -4.86e-4,0.068 -0.04458,0.7218 -0.098,1.4519 -0.06633,0.9065 -0.115274,1.357 -0.154399,1.4208 -0.06661,0.1087 -0.264536,0.1271 -0.358006,0.034 z m 1.047304,-0.011 c -0.117928,-0.1421 -0.239971,-2.6235 -0.201869,-4.1045 0.08332,-3.2383 0.138847,-4.7179 0.180153,-4.8003 0.02446,-0.049 0.09776,-0.1031 0.162874,-0.1204 0.0942,-0.025 0.137771,-0.012 0.213187,0.063 0.111071,0.111 0.112905,0.1385 0.197033,2.9493 0.06933,2.3167 0.06326,3.6916 -0.0216,4.891 -0.07855,1.11 -0.100214,1.1863 -0.336955,1.1863 -0.07653,0 -0.163301,-0.028 -0.192815,-0.065 z m 1.059373,-0.018 c -0.05665,-0.062 -0.07952,-0.1689 -0.09144,-0.4252 -0.0087,-0.1879 -0.04338,-0.816 -0.07697,-1.3958 -0.05007,-0.8642 -0.05307,-1.3237 -0.01662,-2.5513 0.02445,-0.8232 0.05812,-2.1385 0.07482,-2.9225 l 0.03036,-1.4254 0.115065,-0.1 c 0.143017,-0.1231 0.201287,-0.124 0.339377,-0.011 0.10892,0.094 0.10918,0.095 0.145482,0.9646 0.04543,1.0875 0.127565,4.2284 0.127996,4.8944 3.31e-4,0.5105 -0.108252,2.4405 -0.154036,2.7378 -0.01405,0.092 -0.05441,0.1985 -0.08968,0.2385 -0.08785,0.1 -0.309913,0.094 -0.404343,-0.011 z m 3.25946,0.011 c -0.11831,-0.096 -0.148905,-0.353 -0.213464,-1.7942 -0.04879,-1.0891 -0.01547,-4.6335 0.07097,-7.5475 l 0.02516,-0.8481 0.116407,-0.1165 c 0.143193,-0.1431 0.288015,-0.1486 0.441341,-0.017 l 0.115764,0.1 0.0304,0.9063 c 0.01672,0.4985 0.05965,2.1664 0.09541,3.7066 0.0577,2.4853 0.05812,2.898 0.0038,3.6711 -0.03366,0.4791 -0.07381,1.0672 -0.08922,1.3067 -0.02851,0.4432 -0.08641,0.6333 -0.206935,0.6795 -0.123792,0.049 -0.299276,0.027 -0.389633,-0.046 z m -9.5175986,-0.074 c -0.013364,-0.035 -0.053585,-0.3942 -0.089377,-0.7985 -0.035788,-0.4044 -0.082222,-0.922 -0.1031833,-1.1501 -0.048368,-0.5264 -0.048654,-1.2105 -7.531e-4,-1.7423 0.020558,-0.2281 0.068081,-0.7694 0.105606,-1.2028 0.037527,-0.4332 0.087697,-0.8112 0.1114941,-0.8399 0.0238,-0.028 0.077596,-0.052 0.1195541,-0.052 0.095607,0 0.145201,0.1817 0.1811065,0.6637 0.014446,0.1939 0.056819,0.6139 0.094162,0.9333 0.1018519,0.8713 0.087574,1.9504 -0.041842,3.1629 -0.059047,0.5532 -0.1189402,1.0245 -0.1330959,1.0474 -0.040001,0.064 -0.2165545,0.049 -0.2436857,-0.022 z m -0.993003,-0.051 c -0.074396,-0.1305 -0.2906722,-2.6472 -0.2593526,-3.0178 0.013491,-0.1598 0.061471,-0.7291 0.1066136,-1.2654 0.1021123,-1.2126 0.1171343,-1.3158 0.1958743,-1.346 0.1622466,-0.062 0.1807569,0.035 0.3453321,1.8232 0.046207,0.5019 0.091784,0.9354 0.101278,0.9631 0.0095,0.028 -0.00925,0.2797 -0.041656,0.56 -0.032403,0.2802 -0.078668,0.7242 -0.1027984,0.9866 -0.070226,0.7633 -0.1337249,1.2198 -0.1774804,1.2756 -0.045016,0.058 -0.1402063,0.069 -0.1678111,0.02 z m -1.042519,-0.516 c -0.012656,-0.076 -0.051196,-0.4038 -0.085628,-0.7294 -0.034438,-0.3256 -0.08077,-0.7176 -0.1029717,-0.8712 -0.057173,-0.3953 -0.051389,-0.8756 0.016877,-1.4017 0.032386,-0.2495 0.082796,-0.7025 0.1120296,-1.0068 0.029229,-0.3042 0.076262,-0.5842 0.1045136,-0.6222 0.09366,-0.126 0.1703447,0.024 0.2192831,0.4286 0.024821,0.2054 0.090366,0.727 0.1456484,1.1592 0.1115734,0.8723 0.1158858,0.7775 -0.1124688,2.4707 -0.086274,0.6395 -0.098274,0.6852 -0.1832915,0.6972 -0.074421,0.011 -0.095161,-0.011 -0.1139929,-0.1244 z m -0.9514267,-0.8529 c -0.012207,-0.062 -0.062197,-0.3976 -0.1110832,-0.7441 l -0.088878,-0.6301 0.088495,-0.6559 c 0.1187367,-0.8801 0.11969,-0.8842 0.2105467,-0.8842 0.098165,0 0.1012938,0.013 0.2268959,0.8448 l 0.1054679,0.6996 -0.083304,0.5034 c -0.045818,0.2769 -0.08348,0.5408 -0.0837,0.5864 -2.195e-4,0.045 -0.01984,0.1531 -0.043597,0.2385 -0.053569,0.1929 -0.1865141,0.218 -0.2208476,0.042 z"
       id="path4152"
       inkscape:connector-curvature="0" />
  </g>
</svg>
