<?xml version="1.0" encoding="UTF-8" standalone="no"?>
<!-- Created with Inkscape (http://www.inkscape.org/) -->

<svg
   width="32"
   height="32"
   viewBox="0 0 8.4666665 8.4666669"
   version="1.1"
   id="svg8"
   sodipodi:docname="threads_logo_32.svg"
   inkscape:version="1.2.2 (b0a8486541, 2022-12-01)"
   inkscape:export-filename="threads_logo_32.png"
   inkscape:export-xdpi="96.000008"
   inkscape:export-ydpi="96.000008"
   xml:space="preserve"
   xmlns:inkscape="http://www.inkscape.org/namespaces/inkscape"
   xmlns:sodipodi="http://sodipodi.sourceforge.net/DTD/sodipodi-0.dtd"
   xmlns="http://www.w3.org/2000/svg"
   xmlns:svg="http://www.w3.org/2000/svg"
   xmlns:rdf="http://www.w3.org/1999/02/22-rdf-syntax-ns#"
   xmlns:cc="http://creativecommons.org/ns#"
   xmlns:dc="http://purl.org/dc/elements/1.1/"><defs
     id="defs2" /><sodipodi:namedview
     id="base"
     pagecolor="#ffffff"
     bordercolor="#666666"
     borderopacity="1.0"
     inkscape:pageopacity="0.0"
     inkscape:pageshadow="2"
     inkscape:zoom="7.919596"
     inkscape:cx="-11.995561"
     inkscape:cy="16.667517"
     inkscape:document-units="mm"
     inkscape:current-layer="layer1"
     showgrid="false"
     units="px"
     inkscape:window-width="1920"
     inkscape:window-height="1011"
     inkscape:window-x="0"
     inkscape:window-y="32"
     inkscape:window-maximized="1"
     inkscape:pagecheckerboard="0"
     inkscape:showpageshadow="2"
     inkscape:deskcolor="#d1d1d1" /><metadata
     id="metadata5"><rdf:RDF><cc:Work
         rdf:about=""><dc:format>image/svg+xml</dc:format><dc:type
           rdf:resource="http://purl.org/dc/dcmitype/StillImage" /><dc:title /></cc:Work></rdf:RDF></metadata><g
     inkscape:label="Taso 1"
     inkscape:groupmode="layer"
     id="layer1"
     transform="translate(0,-288.53332)"><path
       id="path845"
       style="opacity:1;fill:#333333;fill-opacity:1;fill-rule:nonzero;stroke:none;stroke-width:3.77952766;stroke-linecap:square;stroke-linejoin:miter;stroke-miterlimit:4;stroke-dasharray:none;stroke-dashoffset:0;stroke-opacity:1;paint-order:normal"
       d="M 15.666016 0.00390625 A 16.000001 16.000001 0 0 0 9.4628907 1.3964844 A 16.000001 16.000001 0 0 0 1.3710938 22.480469 L 1.4726563 22.707032 A 16.000001 16.000001 0 0 0 22.650391 30.552735 A 16.000001 16.000001 0 0 0 30.578125 9.4062501 A 16.000001 16.000001 0 0 0 15.666016 0.00390625 z M 16.16211 4.5761719 L 16.175781 4.5761719 C 19.523662 4.5993404 22.121824 5.7186361 23.898438 7.904297 C 24.775013 8.9826707 25.418749 10.283654 25.828125 11.792969 L 23.90625 12.306641 C 23.568518 11.080979 23.056466 10.029768 22.376953 9.1933595 C 20.99115 7.4886431 18.904016 6.6106946 16.169922 6.591797 C 13.455523 6.6119418 11.40112 7.4821901 10.066406 9.1796876 C 8.8165515 10.768448 8.1706356 13.064696 8.1464845 16.001953 C 8.1705861 18.93921 8.8165496 21.233127 10.066406 22.822266 C 11.40112 24.519952 13.455523 25.391259 16.169922 25.410157 C 18.616943 25.39209 20.23502 24.808742 21.582032 23.462891 C 23.119456 21.926779 23.091333 20.042701 22.59961 18.896485 C 22.310427 18.22354 21.786603 17.660176 21.080078 17.234375 C 20.90799 18.516163 20.518538 19.535268 19.902344 20.320313 C 19.090974 21.356318 17.927839 21.927938 16.445313 22.003907 C 15.322713 22.066647 14.242971 21.793406 13.404297 21.240235 C 12.412353 20.585357 11.831689 19.583196 11.769531 18.417969 C 11.647136 16.121493 13.469975 14.4759 16.304688 14.304688 C 17.310981 14.243837 18.250694 14.285563 19.121094 14.4375 C 19.005539 13.730351 18.772758 13.170488 18.423828 12.765625 C 17.944362 12.210715 17.204373 11.925528 16.222656 11.917969 L 16.195313 11.917969 C 15.407105 11.917969 14.336262 12.13776 13.654297 13.171875 L 12.013672 12.046875 C 12.926565 10.662662 14.410017 9.9003907 16.19336 9.9003907 C 16.206864 9.9003907 16.220882 9.9002018 16.234375 9.9003907 C 19.215916 9.9194018 20.991567 11.779738 21.167969 15.029297 C 21.269249 15.06747 21.368329 15.123936 21.466797 15.16211 L 21.466797 15.164063 C 22.857957 15.831451 23.876538 16.842777 24.410157 18.085938 C 25.153935 19.82089 25.221519 22.647707 22.964844 24.902344 C 21.239999 26.625505 19.146183 27.404931 16.175781 27.423828 L 16.16211 27.423828 C 12.821034 27.40066 10.251403 26.276234 8.5253907 24.082032 C 6.9894739 22.129643 6.1984829 19.413277 6.1718751 16.007813 L 6.1718751 16 L 6.1718751 15.992188 C 6.1984954 12.586723 6.9894871 9.8705842 8.5253907 7.9179688 C 10.251403 5.724749 12.821034 4.5950696 16.16211 4.5761719 z M 17.103516 16.291016 C 16.877994 16.291016 16.649957 16.295429 16.416016 16.310547 C 14.373273 16.427826 13.695046 17.414974 13.742188 18.300781 C 13.805831 19.496472 15.097439 20.060344 16.339844 19.984375 L 16.339844 19.986328 C 17.556236 19.91962 18.936486 19.441478 19.171875 16.501953 C 18.540799 16.367024 17.845511 16.291016 17.103516 16.291016 z "
       transform="matrix(0.26458333,0,0,0.26458333,0,288.53332)" /></g></svg>
