<?xml version="1.0" encoding="UTF-8" standalone="no"?>
<!-- Created with Inkscape (http://www.inkscape.org/) -->

<svg
   xmlns:dc="http://purl.org/dc/elements/1.1/"
   xmlns:cc="http://creativecommons.org/ns#"
   xmlns:rdf="http://www.w3.org/1999/02/22-rdf-syntax-ns#"
   xmlns:svg="http://www.w3.org/2000/svg"
   xmlns="http://www.w3.org/2000/svg"
   xmlns:sodipodi="http://sodipodi.sourceforge.net/DTD/sodipodi-0.dtd"
   xmlns:inkscape="http://www.inkscape.org/namespaces/inkscape"
   width="32"
   height="32"
   viewBox="0 0 32 32"
   id="svg2"
   version="1.1"
   inkscape:version="0.91 r13725"
   sodipodi:docname="tw_logo_32.svg"
   inkscape:export-filename="/home/zipola/Projektit/tuomosipola.github.io/pics/tw_logo_32.png"
   inkscape:export-xdpi="90"
   inkscape:export-ydpi="90">
  <defs
     id="defs4" />
  <sodipodi:namedview
     id="base"
     pagecolor="#ffffff"
     bordercolor="#666666"
     borderopacity="1.0"
     inkscape:pageopacity="0.0"
     inkscape:pageshadow="2"
     inkscape:zoom="3.959798"
     inkscape:cx="-49.977145"
     inkscape:cy="29.939434"
     inkscape:document-units="px"
     inkscape:current-layer="layer1"
     showgrid="false"
     units="px"
     width="32in"
     inkscape:window-width="1366"
     inkscape:window-height="704"
     inkscape:window-x="0"
     inkscape:window-y="27"
     inkscape:window-maximized="1" />
  <metadata
     id="metadata7">
    <rdf:RDF>
      <cc:Work
         rdf:about="">
        <dc:format>image/svg+xml</dc:format>
        <dc:type
           rdf:resource="http://purl.org/dc/dcmitype/StillImage" />
        <dc:title></dc:title>
      </cc:Work>
    </rdf:RDF>
  </metadata>
  <g
     inkscape:label="Taso 1"
     inkscape:groupmode="layer"
     id="layer1"
     transform="translate(0,-1020.3622)">
    <path
       style="opacity:1;fill:#333333;fill-opacity:1;fill-rule:nonzero;stroke:none;stroke-width:4.22900009;stroke-linecap:round;stroke-linejoin:round;stroke-miterlimit:4;stroke-dasharray:none;stroke-dashoffset:0;stroke-opacity:1"
       d="M 16 0 A 16 16 0 0 0 0 16 A 16 16 0 0 0 16 32 A 16 16 0 0 0 32 16 A 16 16 0 0 0 16 0 z M 20.644531 8.5898438 L 20.835938 8.609375 L 21.029297 8.6308594 L 21.236328 8.671875 L 21.443359 8.7148438 L 21.628906 8.7734375 C 21.730811 8.8064375 21.894748 8.8670031 21.992188 8.9082031 C 22.089627 8.9492031 22.232975 9.0172469 22.3125 9.0605469 C 22.39202 9.1045469 22.540605 9.1961719 22.640625 9.2636719 C 22.740643 9.3306719 22.874952 9.429675 22.941406 9.484375 C 23.007866 9.539375 23.120088 9.6389781 23.189453 9.7050781 L 23.314453 9.8242188 L 23.388672 9.8144531 C 23.428992 9.8044531 23.57702 9.7742813 23.71875 9.7382812 C 23.860479 9.7022812 24.07483 9.6415156 24.193359 9.6035156 C 24.311888 9.5655156 24.531201 9.4851813 24.681641 9.4257812 C 24.832081 9.3667813 25.055343 9.2711906 25.177734 9.2128906 C 25.300125 9.1548906 25.491337 9.0557406 25.601562 8.9941406 C 25.711786 8.9321406 25.803256 8.8852719 25.806641 8.8886719 C 25.810041 8.8886719 25.779941 8.9817438 25.738281 9.0898438 C 25.696611 9.1977437 25.618779 9.3702563 25.566406 9.4726562 C 25.514026 9.5750562 25.426693 9.7278 25.371094 9.8125 C 25.315494 9.8975 25.223959 10.026109 25.167969 10.099609 L 25.066406 10.234375 L 24.890625 10.416016 L 24.712891 10.597656 L 24.560547 10.722656 C 24.476597 10.790656 24.34105 10.892219 24.257812 10.949219 L 24.105469 11.052734 L 24.164062 11.042969 C 24.196433 11.032969 24.317988 11.018047 24.433594 10.998047 C 24.549201 10.979047 24.731533 10.944875 24.837891 10.921875 C 24.944249 10.898875 25.113291 10.858078 25.214844 10.830078 C 25.316396 10.802078 25.484022 10.75125 25.585938 10.71875 C 25.687852 10.68575 25.893074 10.611934 26.042969 10.552734 C 26.192863 10.493734 26.32081 10.445312 26.326172 10.445312 C 26.331572 10.445312 26.302622 10.490728 26.263672 10.548828 C 26.224722 10.606828 26.12608 10.742609 26.044922 10.849609 C 25.963762 10.956509 25.824431 11.129575 25.734375 11.234375 C 25.644315 11.339175 25.470144 11.523984 25.347656 11.646484 C 25.225167 11.768884 25.031077 11.950228 24.916016 12.048828 C 24.800955 12.147828 24.635561 12.281956 24.548828 12.347656 L 24.390625 12.466797 L 24.380859 13.099609 L 24.371094 13.732422 L 24.341797 13.992188 C 24.326557 14.135587 24.296457 14.383269 24.273438 14.542969 C 24.250428 14.702869 24.209371 14.948291 24.181641 15.087891 C 24.153911 15.227491 24.103386 15.452491 24.070312 15.587891 C 24.037243 15.723091 23.977714 15.947138 23.9375 16.085938 C 23.89728 16.224637 23.821989 16.462534 23.769531 16.615234 C 23.717071 16.767734 23.628688 17.004025 23.574219 17.140625 C 23.519749 17.277125 23.427027 17.499213 23.367188 17.632812 C 23.307347 17.766412 23.21584 17.9592 23.164062 18.0625 C 23.112282 18.1657 23.008276 18.360794 22.933594 18.496094 C 22.858904 18.631394 22.729844 18.852128 22.646484 18.986328 C 22.563124 19.120328 22.43686 19.314216 22.367188 19.416016 C 22.297518 19.517716 22.165065 19.703225 22.072266 19.828125 C 21.979466 19.952925 21.811793 20.164228 21.699219 20.298828 C 21.586646 20.433428 21.389155 20.657975 21.259766 20.796875 L 21.023438 21.048828 L 20.757812 21.294922 C 20.611096 21.429622 20.417195 21.599428 20.328125 21.673828 C 20.239055 21.748828 20.053535 21.894047 19.916016 21.998047 C 19.778496 22.102047 19.526567 22.279878 19.355469 22.392578 C 19.184372 22.505178 18.942614 22.655162 18.818359 22.726562 C 18.694104 22.797562 18.459324 22.924559 18.296875 23.005859 C 18.134427 23.086859 17.911763 23.191834 17.800781 23.240234 C 17.689799 23.288234 17.510655 23.362897 17.404297 23.404297 C 17.29794 23.445297 17.100901 23.5166 16.966797 23.5625 C 16.832694 23.6085 16.621426 23.676691 16.496094 23.712891 C 16.370763 23.749891 16.159017 23.805091 16.025391 23.837891 C 15.891764 23.870891 15.644989 23.923778 15.478516 23.955078 C 15.312043 23.987078 15.067698 24.028875 14.933594 24.046875 C 14.79949 24.065875 14.571086 24.092469 14.427734 24.105469 C 14.284382 24.119469 14.02852 24.138438 13.857422 24.148438 L 13.544922 24.166016 L 13.158203 24.166016 L 13.158203 24.167969 C 12.945487 24.167969 12.666588 24.158344 12.537109 24.152344 C 12.407629 24.142344 12.158144 24.120563 11.982422 24.101562 L 11.662109 24.068359 L 11.326172 24.009766 C 11.140941 23.978766 10.854434 23.920513 10.689453 23.882812 C 10.52447 23.844812 10.274723 23.780634 10.134766 23.740234 C 9.9948075 23.700234 9.7330805 23.616687 9.5527344 23.554688 C 9.3723882 23.492688 9.1062422 23.393684 8.9628906 23.333984 C 8.8195381 23.274984 8.5962758 23.176987 8.4667969 23.117188 C 8.3373179 23.057188 8.1108673 22.942881 7.9628906 22.863281 C 7.8149148 22.784281 7.5884633 22.653972 7.4589844 22.576172 C 7.3295045 22.499172 7.2162797 22.427569 7.2070312 22.417969 L 7.1894531 22.400391 L 7.2910156 22.412109 C 7.3465076 22.422109 7.5524274 22.429406 7.75 22.441406 L 8.109375 22.462891 L 8.4726562 22.443359 L 8.8378906 22.423828 L 9.046875 22.398438 C 9.1624822 22.384438 9.3678491 22.354031 9.5019531 22.332031 C 9.6360563 22.309031 9.8708374 22.257803 10.023438 22.220703 L 10.300781 22.152344 L 10.619141 22.046875 L 10.939453 21.939453 L 11.164062 21.845703 C 11.287947 21.793703 11.504832 21.692947 11.644531 21.623047 C 11.78423 21.553047 11.977108 21.450331 12.074219 21.394531 C 12.171329 21.338531 12.325484 21.243294 12.417969 21.183594 C 12.510449 21.124594 12.677435 21.009587 12.787109 20.929688 L 12.986328 20.785156 L 12.802734 20.771484 L 12.621094 20.759766 L 12.410156 20.724609 L 12.201172 20.689453 L 12.001953 20.630859 C 11.892705 20.599859 11.723953 20.543959 11.626953 20.505859 C 11.529953 20.467859 11.373626 20.396056 11.279297 20.347656 C 11.184967 20.299656 11.039745 20.215509 10.957031 20.162109 C 10.874321 20.108109 10.746386 20.019491 10.671875 19.962891 L 10.535156 19.861328 L 10.351562 19.683594 C 10.250808 19.586594 10.112651 19.438669 10.042969 19.355469 L 9.9160156 19.203125 L 9.7832031 19.001953 L 9.6484375 18.798828 L 9.5351562 18.564453 C 9.4722272 18.434953 9.4001151 18.269166 9.375 18.197266 L 9.328125 18.066406 L 9.3378906 18.056641 L 9.3476562 18.046875 L 9.5546875 18.076172 L 9.7617188 18.105469 L 10.064453 18.105469 L 10.367188 18.105469 L 10.519531 18.085938 C 10.602761 18.074938 10.7307 18.054063 10.804688 18.039062 C 10.878668 18.024062 10.969243 18.005094 11.005859 17.996094 L 11.072266 17.980469 L 10.884766 17.931641 C 10.781278 17.904641 10.621601 17.855566 10.53125 17.822266 C 10.4409 17.788266 10.268669 17.71465 10.148438 17.65625 L 9.9296875 17.548828 L 9.7285156 17.416016 L 9.5273438 17.283203 L 9.3730469 17.154297 C 9.2881729 17.083297 9.1634205 16.97215 9.0976562 16.90625 C 9.0318932 16.84025 8.9203661 16.717612 8.8496094 16.632812 L 8.7207031 16.478516 L 8.5917969 16.279297 C 8.5199639 16.169697 8.4260335 16.013494 8.3847656 15.933594 C 8.3434996 15.853594 8.2749804 15.703509 8.2324219 15.599609 L 8.15625 15.412109 L 8.0996094 15.212891 L 8.0410156 15.015625 L 8.0058594 14.804688 L 7.96875 14.595703 L 7.9589844 14.339844 L 7.9492188 14.082031 L 7.9589844 14.082031 C 7.9638144 14.082031 8.0530202 14.122828 8.1582031 14.173828 C 8.2633862 14.223828 8.4250929 14.294625 8.5175781 14.328125 C 8.6100631 14.362125 8.7840664 14.412659 8.9042969 14.443359 L 9.1230469 14.5 L 9.3339844 14.527344 L 9.5429688 14.556641 L 9.6171875 14.546875 L 9.6894531 14.535156 L 9.5488281 14.431641 C 9.4718371 14.374641 9.3442649 14.269666 9.265625 14.197266 C 9.186984 14.124266 9.080875 14.020344 9.0292969 13.964844 C 8.9777229 13.908844 8.8952161 13.813906 8.8457031 13.753906 C 8.7961891 13.693906 8.6961021 13.554359 8.6230469 13.443359 L 8.4902344 13.240234 L 8.3828125 13.023438 C 8.3240485 12.903137 8.2479879 12.730925 8.2148438 12.640625 C 8.1816977 12.550625 8.1340731 12.391009 8.1074219 12.287109 C 8.0807739 12.183109 8.045977 12.0254 8.03125 11.9375 L 8.0058594 11.777344 L 7.9882812 11.529297 L 7.9707031 11.28125 L 7.9882812 11.042969 C 7.9977713 10.911169 8.016933 10.730378 8.03125 10.642578 C 8.045567 10.554578 8.0751732 10.410966 8.0976562 10.322266 C 8.1201482 10.234266 8.1660901 10.082728 8.1992188 9.9863281 L 8.2597656 9.8105469 L 8.3730469 9.5742188 C 8.4362039 9.4436188 8.4966264 9.3318719 8.5058594 9.3261719 L 8.5214844 9.3164062 L 8.7050781 9.5292969 C 8.8055869 9.6469969 9.0166012 9.8763094 9.1738281 10.037109 C 9.3310541 10.198009 9.5424268 10.404547 9.6445312 10.498047 C 9.7466368 10.591047 9.9188836 10.743084 10.027344 10.833984 C 10.135804 10.924984 10.34792 11.090425 10.498047 11.203125 C 10.648174 11.315825 10.873193 11.475794 10.998047 11.558594 C 11.122902 11.641594 11.349352 11.7839 11.501953 11.875 L 11.779297 12.041016 L 12.175781 12.238281 C 12.393122 12.347081 12.681256 12.482262 12.816406 12.539062 C 12.951556 12.595063 13.154972 12.678003 13.269531 12.720703 C 13.384091 12.763703 13.580224 12.832047 13.705078 12.873047 C 13.829933 12.914047 14.053196 12.982538 14.201172 13.023438 C 14.349149 13.064437 14.587117 13.12405 14.730469 13.15625 C 14.873821 13.18825 15.102224 13.233612 15.236328 13.257812 C 15.370431 13.281812 15.593693 13.313031 15.732422 13.332031 C 15.871149 13.350031 16.086081 13.374766 16.210938 13.384766 C 16.335793 13.394766 16.473647 13.405203 16.517578 13.408203 L 16.597656 13.417969 L 16.597656 13.398438 C 16.59745 13.387438 16.58117 13.291847 16.5625 13.185547 L 16.529297 12.992188 L 16.519531 12.654297 L 16.509766 12.314453 L 16.529297 12.123047 C 16.540157 12.017847 16.567084 11.839763 16.589844 11.726562 L 16.630859 11.521484 L 16.708984 11.287109 L 16.785156 11.052734 L 16.908203 10.802734 L 17.029297 10.552734 L 17.146484 10.376953 C 17.210964 10.279953 17.312536 10.140406 17.371094 10.066406 C 17.429644 9.9924062 17.546849 9.8599375 17.630859 9.7734375 L 17.783203 9.6171875 L 17.951172 9.4804688 C 18.043652 9.4054687 18.199765 9.2927156 18.296875 9.2285156 L 18.472656 9.1113281 L 18.707031 8.9960938 L 18.943359 8.8808594 L 19.109375 8.8222656 C 19.200945 8.7892656 19.364642 8.7404906 19.472656 8.7128906 C 19.58067 8.6858906 19.74419 8.6507188 19.835938 8.6367188 L 20.001953 8.609375 L 20.324219 8.5996094 L 20.644531 8.5898438 z "
       transform="translate(0,1020.3622)"
       id="path4273" />
  </g>
</svg>
